<svg width="94" height="94" viewBox="0 0 94 94" fill="none" xmlns="http://www.w3.org/2000/svg">
<g opacity="0.04" clip-path="url(#clip0_59_6345)">
<path d="M49.7537 55.4866V38.6163C53.6644 38.3574 60.6934 37.1872 65.5433 32.3369C72.438 25.4418 71.8981 14.1372 71.8718 13.6593C71.7945 12.2578 70.6755 11.1386 69.2738 11.0613C68.7963 11.0347 57.4915 10.495 50.5966 17.3899C49.863 18.1235 49.2144 18.9074 48.6395 19.7224C47.6294 15.6634 45.7311 11.1285 42.1827 7.58009C33.947 -0.655593 20.3945 -0.00806869 19.8219 0.0238761C18.4203 0.101168 17.3012 1.22034 17.2239 2.62187C17.1923 3.19485 16.5444 16.7473 24.7803 24.9832C30.814 31.0169 39.6998 32.2824 44.246 32.5154V55.4866C45.1579 55.3841 46.0773 55.3313 46.9999 55.3313C47.9226 55.3313 48.8419 55.3843 49.7537 55.4866Z" fill="white"/>
<path d="M69.1222 71.9004C67.6411 71.9004 66.1827 72.1365 64.7953 72.5946C63.5511 69.6891 61.597 67.0966 59.1104 65.0982C55.6931 62.3517 51.3921 60.8391 46.9999 60.8391C42.6078 60.8391 38.3069 62.3517 34.8893 65.0982C32.4028 67.0966 30.4486 69.6891 29.2045 72.5946C27.8171 72.1365 26.3584 71.9004 24.8776 71.9004C17.2601 71.9004 11.0626 78.0979 11.0626 85.7156V91.2463C11.0626 92.7672 12.2956 94.0001 13.8164 94.0001H80.1831C81.704 94.0001 82.937 92.7672 82.937 91.2463V85.7156C82.9372 78.0979 76.7399 71.9004 69.1222 71.9004Z" fill="white"/>
</g>
<defs>
<clipPath id="clip0_59_6345">
<rect width="94" height="94" fill="white"/>
</clipPath>
</defs>
</svg>
