<svg width="24" height="24" viewBox="0 0 24 24" fill="none" xmlns="http://www.w3.org/2000/svg">
<g clip-path="url(#clip0_3_66)">
<g clip-path="url(#clip1_3_66)">
<path d="M0 14.7097V17.8839C0 19.2 1.04516 20.129 2.32258 20.129H21.6774C22.9548 20.129 24 19.2 24 17.8839V14.7097H0Z" fill="#1EB53A"/>
<path d="M21.6774 3.87097H2.32258C1.04516 3.87097 0 4.8 0 6.11613V9.29033H24V6.11613C24 4.8 22.9548 3.87097 21.6774 3.87097Z" fill="#0099B5"/>
<path d="M24 9.29031H0V14.7097H24V9.29031Z" fill="white"/>
<path d="M21.6774 20.129C22.9548 20.129 24 19.2 24 17.8839V14.7097H15.2516L21.6774 20.129Z" fill="#11A325"/>
<path d="M21.6774 3.87097H2.32257L8.70967 9.29033H24V6.11613C24 4.8 22.9548 3.87097 21.6774 3.87097Z" fill="#078C9E"/>
<path d="M15.2516 14.7097H24V9.29031H8.70966L15.2516 14.7097Z" fill="#E1EAE2"/>
<path d="M21.6774 3.87097H2.32257L20.2452 9.29033H24V6.11613C24 4.8 22.9548 3.87097 21.6774 3.87097Z" fill="#048089"/>
<path d="M23.9999 10.3742V9.29031H20.0516L23.9999 10.3742Z" fill="#C2CEC3"/>
<path d="M24 17.8452C24 19.3161 22.9548 20.129 21.6774 20.129H2.32258C1.04516 20.129 0 19.1226 0 17.8065" fill="#098914"/>
<path d="M24 8.90323H0V9.29033H24V8.90323Z" fill="#CE1126"/>
<path d="M8.70971 9.29033H24V8.90323H8.20648L8.70971 9.29033Z" fill="#A8071E"/>
<path d="M24 14.7097H0V15.0968H24V14.7097Z" fill="#CE1126"/>
<path d="M15.2516 14.7097L15.7161 15.0968H24V14.7097H15.2516Z" fill="#A8071E"/>
<path d="M3.63872 4.95485C3.5613 4.95485 3.48388 4.91614 3.40646 4.91614C2.59356 4.91614 1.89679 5.5742 1.89679 6.42582C1.89679 7.27743 2.55485 7.9355 3.40646 7.9355C3.48388 7.9355 3.5613 7.9355 3.63872 7.89679C2.94195 7.78066 2.40001 7.1613 2.40001 6.42582C2.40001 5.65162 2.94195 5.07098 3.63872 4.95485Z" fill="white"/>
<path d="M4.37421 7.50971L4.29679 7.31616L4.21937 7.50971H4.02582L4.18066 7.66455L4.14195 7.8581L4.29679 7.74197L4.49033 7.8581L4.41291 7.66455L4.60646 7.50971H4.37421Z" fill="white"/>
<path d="M5.57422 7.50971L5.4968 7.31616L5.41938 7.50971H5.22583L5.38067 7.66455L5.34196 7.8581L5.4968 7.74197L5.69035 7.8581L5.61293 7.66455L5.76777 7.50971H5.57422Z" fill="white"/>
<path d="M6.77417 7.50971L6.69675 7.31616L6.61933 7.50971H6.42578L6.58062 7.66455L6.5032 7.8581L6.69675 7.74197L6.8903 7.8581L6.81288 7.66455L6.96772 7.50971H6.77417Z" fill="white"/>
<path d="M7.97418 7.50971L7.89676 7.31616L7.81934 7.50971H7.62579L7.78063 7.66455L7.70321 7.8581L7.89676 7.74197L8.09031 7.8581L8.01289 7.66455L8.16773 7.50971H7.97418Z" fill="white"/>
<path d="M9.17419 7.50971L9.09677 7.31616L9.01935 7.50971H8.82581L8.98064 7.66455L8.90323 7.8581L9.09677 7.74197L9.25161 7.8581L9.2129 7.66455L9.36774 7.50971H9.17419Z" fill="white"/>
<path d="M5.4968 6.11615L5.45809 6.3097H5.22583L5.41938 6.46454L5.34196 6.65809L5.4968 6.54196L5.69035 6.65809L5.61293 6.46454L5.80648 6.3097H5.57422L5.4968 6.11615Z" fill="white"/>
<path d="M6.69675 6.11615L6.65804 6.3097H6.42578L6.61933 6.46454L6.54191 6.65809L6.69675 6.54196L6.8903 6.65809L6.81288 6.46454L7.00643 6.3097H6.77417L6.69675 6.11615Z" fill="white"/>
<path d="M7.89676 6.11615L7.85805 6.3097H7.62579L7.81934 6.46454L7.74192 6.65809L7.89676 6.54196L8.09031 6.65809L8.01289 6.46454L8.20644 6.3097H7.97418L7.89676 6.11615Z" fill="white"/>
<path d="M9.17419 6.3097L9.09677 6.11615L9.05806 6.3097H8.82581L8.98064 6.46454L8.94194 6.65809L9.09677 6.54196L9.29032 6.65809L9.2129 6.46454L9.40645 6.3097H9.17419Z" fill="white"/>
<path d="M6.58069 5.26452L6.50327 5.45807L6.69682 5.34194L6.85166 5.45807L6.81295 5.26452L6.96779 5.10969H6.77424L6.69682 4.91614L6.6194 5.10969H6.38715L6.58069 5.26452Z" fill="white"/>
<path d="M7.78065 5.26452L7.70323 5.45807L7.89677 5.34194L8.05161 5.45807L8.0129 5.26452L8.16774 5.10969H7.97419L7.89677 4.91614L7.81936 5.10969H7.5871L7.78065 5.26452Z" fill="white"/>
<path d="M8.98066 5.26452L8.90324 5.45807L9.09679 5.34194L9.25163 5.45807L9.21292 5.26452L9.36775 5.10969H9.1355L9.09679 4.91614L9.01937 5.10969H8.78711L8.98066 5.26452Z" fill="white"/>
</g>
</g>
<defs>
<clipPath id="clip0_3_66">
<rect width="24" height="24" fill="white"/>
</clipPath>
<clipPath id="clip1_3_66">
<rect y="3.87097" width="24" height="16.2581" rx="2" fill="white"/>
</clipPath>
</defs>
</svg>
