<svg width="84" height="22" viewBox="0 0 84 22" fill="none" xmlns="http://www.w3.org/2000/svg">
<g clip-path="url(#clip0_133_1270)">
<path fill-rule="evenodd" clip-rule="evenodd" d="M33.6838 6.88221C33.8098 7.40676 34.3663 8.84406 34.5763 9.49451C34.6393 9.67286 34.6918 9.84072 34.7548 10.04L35.1433 11.1206H32.1508C32.2243 10.9633 32.2558 10.8059 32.3293 10.6171L32.9068 8.99093C33.0118 8.69718 33.5473 7.02908 33.6838 6.88221ZM28.3288 15.6843H30.5338L31.3738 13.2189H35.9308L36.7708 15.6843H38.9758C39.1648 15.6843 39.1228 15.5899 39.0598 15.443C38.9968 15.2961 38.9653 15.2122 38.9128 15.0548C38.8288 14.8135 38.7133 14.5722 38.6293 14.2995L34.7233 3.78731H32.5708C32.5603 3.92369 32.3818 4.38531 32.3293 4.53218L28.2658 15.401C28.2238 15.5374 28.0978 15.6843 28.3288 15.6843Z" fill="white"/>
<path fill-rule="evenodd" clip-rule="evenodd" d="M44.3727 13.6385H44.0052C43.0078 13.6385 42.0628 12.6419 42.0628 11.6452C42.0628 10.8479 42.0313 10.2289 42.6823 9.58893C43.5118 8.76012 44.8662 8.76012 45.7272 9.60991C46.5462 10.4177 46.5567 12.1802 45.7167 13.03L45.6012 13.1245C45.2652 13.4182 44.8977 13.6385 44.3727 13.6385ZM42.0103 7.82641C41.9368 7.53266 41.7163 7.24939 41.6953 6.98711H40.0153V18.6638H42.2203V14.9499C43.2493 15.6423 43.5223 15.7368 44.7402 15.7368C46.7037 15.7368 48.5097 13.628 48.5097 11.6557C48.5097 10.4492 48.4467 9.75679 47.7432 8.69718L47.3127 8.13065C47.2182 8.01525 47.1867 8.00476 47.0607 7.91034C46.9347 7.81592 46.9032 7.75297 46.7772 7.66904C45.5487 6.81925 44.4252 6.6514 43.0498 7.18645C42.3988 7.44873 42.3778 7.58511 42.0103 7.82641Z" fill="white"/>
<path fill-rule="evenodd" clip-rule="evenodd" d="M53.9698 8.98045C54.2113 8.98045 54.5368 9.0329 54.7363 9.10634C54.8413 9.13781 54.9568 9.21125 55.0513 9.26371C55.2298 9.35813 55.1878 9.35813 55.3243 9.46304C55.6498 9.71483 55.9753 10.2289 56.0173 10.659H51.9328C52.1323 9.73581 52.8358 8.98045 53.9698 8.98045ZM49.6123 11.278C49.6123 11.5403 49.6753 11.9809 49.7173 12.2222C49.7803 12.537 49.8643 12.7573 49.9693 13.0195C50.5363 14.4778 52.1743 15.7368 53.6443 15.7368C54.9148 15.7368 55.4503 15.6319 56.5213 14.8345C56.8363 14.6037 57.0568 14.3624 57.2983 14.0372C57.4558 13.8169 57.7813 13.2818 57.8443 13.0091C57.1513 13.0091 56.4268 12.9881 55.7443 13.0091C55.3663 13.0195 55.6183 13.1035 55.0828 13.3972C54.3898 13.7854 53.2453 13.7434 52.6153 13.2084C52.4473 13.072 52.3948 12.9566 52.2688 12.7678C52.1428 12.5789 52.0798 12.4111 52.0273 12.1698H58.0543L58.1068 10.9633C58.1068 9.55746 57.3613 8.47687 56.5003 7.75298C55.3663 6.79828 53.5603 6.59895 52.2268 7.28088C51.5128 7.63758 50.8828 8.13066 50.4418 8.7916C49.9588 9.50501 49.6123 10.3968 49.6123 11.278Z" fill="white"/>
<path fill-rule="evenodd" clip-rule="evenodd" d="M78.0253 7.77396C77.9623 7.51168 77.7733 7.2494 77.7103 6.98712H76.0828V15.6843H78.1303C78.3718 15.6843 78.2878 15.2752 78.2878 14.7926V11.5928C78.2878 10.5331 78.1933 9.90367 78.9598 9.32666C79.7053 8.74964 80.8498 8.88603 81.4483 9.64139C81.8263 10.124 81.8053 10.6485 81.8053 11.4878V15.2542C81.7948 15.8312 81.6163 15.6738 84.0103 15.6738V10.4387C84.0103 9.68336 83.8003 9.00143 83.4538 8.42441C82.3618 6.61993 79.9048 6.44158 78.3193 7.62708C78.1513 7.75298 78.2458 7.75298 78.0253 7.77396Z" fill="white"/>
<path fill-rule="evenodd" clip-rule="evenodd" d="M63.6613 9.34764C63.6613 10.103 63.6718 10.4912 64.2493 11.0577C65.6248 12.4216 68.0608 12.0439 68.0608 13.0091C68.0608 13.4497 67.7038 13.7749 67.3468 13.8693C66.9793 13.9742 66.7273 13.9742 66.3598 13.8693C65.6143 13.67 65.6878 12.9041 65.4358 12.9041H63.4408C63.5878 14.6142 64.9003 15.7368 66.6958 15.7368C67.4203 15.7368 67.7983 15.7787 68.4913 15.4955C69.8563 14.9394 70.6123 13.649 70.1083 12.2222C70.0138 11.939 69.7198 11.5403 69.4888 11.3724C68.5648 10.6905 68.3128 10.659 67.1053 10.3443C66.4228 10.1659 65.8453 10.0191 65.8453 9.50501C65.8453 8.42441 67.7878 8.45589 68.0503 9.55746H70.1503C70.1398 9.1588 69.9508 8.71817 69.8038 8.43491C69.4468 7.78445 68.8483 7.28088 68.1238 7.07105C66.9268 6.71435 65.6563 6.81927 64.6483 7.56414C64.4173 7.732 64.1443 8.00477 63.9868 8.26705C63.8503 8.50834 63.6613 8.98045 63.6613 9.34764Z" fill="white"/>
<path fill-rule="evenodd" clip-rule="evenodd" d="M59.6818 15.5269C59.6818 15.6423 59.7133 15.6843 59.8393 15.6843H61.8868V3.78731H59.6818V15.5269Z" fill="white"/>
<path fill-rule="evenodd" clip-rule="evenodd" d="M71.8408 15.6843H73.8883C74.0143 15.6843 74.0458 15.6528 74.0458 15.5269V6.98712H71.8408V15.6843Z" fill="white"/>
<path fill-rule="evenodd" clip-rule="evenodd" d="M71.7357 4.62661C71.7357 5.50787 72.7962 6.35765 73.7832 5.57081C74.5287 4.97282 74.3292 3.42012 72.8907 3.42012C72.5127 3.42012 72.3132 3.59847 72.1137 3.7978C71.9982 3.91321 71.9247 3.94468 71.8617 4.12303C71.7987 4.26991 71.7357 4.45875 71.7357 4.62661Z" fill="white"/>
<path d="M22.0183 4.38531V17.6252C22.0183 20.0486 20.0548 22.0105 17.6293 22.0105H4.38876C1.96326 22 -0.000244141 20.0381 -0.000244141 17.6147V4.38531C-0.000244141 1.96185 1.96326 0 4.38876 0H17.6398C20.0548 0 22.0183 1.96185 22.0183 4.38531Z" fill="url(#paint0_linear_133_1270)"/>
<path d="M18.4167 15.8732C19.3097 15.8732 20.0337 15.1498 20.0337 14.2575C20.0337 13.3652 19.3097 12.6419 18.4167 12.6419C17.5236 12.6419 16.7997 13.3652 16.7997 14.2575C16.7997 15.1498 17.5236 15.8732 18.4167 15.8732Z" fill="white"/>
<path d="M2.33071 17.7091C2.77144 17.7091 3.12871 17.3521 3.12871 16.9118C3.12871 16.4714 2.77144 16.1145 2.33071 16.1145C1.88999 16.1145 1.53271 16.4714 1.53271 16.9118C1.53271 17.3521 1.88999 17.7091 2.33071 17.7091Z" fill="#D64412"/>
<path d="M4.42031 18.3805C4.86104 18.3805 5.21831 18.0236 5.21831 17.5832C5.21831 17.1429 4.86104 16.7859 4.42031 16.7859C3.97959 16.7859 3.62231 17.1429 3.62231 17.5832C3.62231 18.0236 3.97959 18.3805 4.42031 18.3805Z" fill="#D64412"/>
<path d="M2.81375 19.608C3.25447 19.608 3.61175 19.251 3.61175 18.8107C3.61175 18.3703 3.25447 18.0134 2.81375 18.0134C2.37302 18.0134 2.01575 18.3703 2.01575 18.8107C2.01575 19.251 2.37302 19.608 2.81375 19.608Z" fill="#D64412"/>
<path d="M4.60928 20.4158C5.05 20.4158 5.40728 20.0588 5.40728 19.6185C5.40728 19.1781 5.05 18.8212 4.60928 18.8212C4.16856 18.8212 3.81128 19.1781 3.81128 19.6185C3.81128 20.0588 4.16856 20.4158 4.60928 20.4158Z" fill="#D64412"/>
<path fill-rule="evenodd" clip-rule="evenodd" d="M20.0968 6.4311C19.4773 6.16882 18.8053 6.02194 18.0913 6.02194H4.27332L14.7628 0.912736C15.9388 0.335721 17.3563 0.828807 17.9233 2.00382L20.0968 6.4311Z" fill="#8AC43E"/>
<path fill-rule="evenodd" clip-rule="evenodd" d="M20.5273 6.64091C20.3803 6.56747 20.2333 6.49403 20.0863 6.43109C19.4668 6.16881 18.7948 6.02193 18.0808 6.02193H4.27332L17.1463 2.81163C18.4168 2.49689 19.6978 3.26275 20.0128 4.53218L20.5273 6.64091Z" fill="#209245"/>
<path d="M22.0182 7.80543V10.2184C21.5982 8.4349 19.9917 7.09203 18.0807 7.09203H3.4857C3.1812 7.09203 2.9292 6.84024 2.9292 6.536C2.9292 6.23175 3.1812 5.97997 3.4857 5.97997H18.0912C19.6662 5.97997 21.0732 6.69337 22.0182 7.80543Z" fill="white"/>
</g>
<defs>
<linearGradient id="paint0_linear_133_1270" x1="1.2847" y1="20.7192" x2="20.72" y2="1.26752" gradientUnits="userSpaceOnUse">
<stop stop-color="#E63C06"/>
<stop offset="1" stop-color="#F7BE4C"/>
</linearGradient>
<clipPath id="clip0_133_1270">
<rect width="84" height="22" fill="white" transform="translate(-0.000244141)"/>
</clipPath>
</defs>
</svg>
