<svg width="147" height="154" viewBox="0 0 147 154" fill="none" xmlns="http://www.w3.org/2000/svg">
<g clip-path="url(#clip0_14_4490)" filter="url(#filter0_f_14_4490)">
<path d="M8.99992 30.5607C8.99992 30.5607 29.7354 91.7457 53.6936 113.331C75.9364 133.52 112.374 113.339 117.302 110.326C9.62394 43.2754 11.5185 30.8544 8.99992 30.5607Z" fill="url(#paint0_linear_14_4490)"/>
<path d="M101.307 47.8139C76.7272 33.3315 5.34502 28.2553 10.7156 31.9565C27.0603 54.704 95.5017 96.8504 117.302 110.325C119.299 109.192 128.311 63.4332 101.307 47.8139Z" fill="url(#paint1_linear_14_4490)"/>
<path d="M109.898 106.558C73.6911 118.566 64.2018 109.089 68.3055 110.422C81.7168 115.231 112.662 103.122 109.825 104.158C110.889 103.769 111.316 106.04 109.898 106.558Z" fill="url(#paint2_linear_14_4490)"/>
<path d="M103.651 101.559C104.591 93.1266 105.088 77.9801 101.867 70.2586C98.9999 62.4076 104.161 71.0386 105.494 83.4942C107.473 105.421 103.594 103.602 103.651 101.559Z" fill="url(#paint3_linear_14_4490)"/>
<path d="M62.5137 96.7629C56.7309 95.2346 55.8187 92.7365 56.7885 93.1913C69.5997 101.86 94.1618 92.0816 94.3648 94.8387C93.6343 98.3411 69.621 98.6165 62.5137 96.7629Z" fill="url(#paint4_linear_14_4490)"/>
<path d="M83.436 89.1228C84.8607 80.9179 85.2065 68.658 81.2394 59.9954C76.0418 50.1643 87.9921 61.9785 85.5273 87.1457C85.0574 91.3619 82.9874 90.0955 83.436 89.1228Z" fill="url(#paint5_linear_14_4490)"/>
<path d="M71.537 82.9522C43.8472 84.1657 40.5893 75.2441 42.7896 76.8673C51.2364 83.4897 74.9164 80.1003 71.8189 80.4225C73.498 80.6182 73.216 83.1479 71.537 82.9522Z" fill="url(#paint6_linear_14_4490)"/>
<path d="M62.2144 75.0318C63.5451 67.6702 63.6303 54.6966 58.672 48.8226C57.4415 47.6542 62.3848 49.0846 64.0363 60.2107C66.6151 78.2782 61.8021 77.2046 62.2144 75.0318Z" fill="url(#paint7_linear_14_4490)"/>
<path d="M50.7642 67.8884C34.1401 67.4878 32.9309 63.0759 34.3857 63.7581C39.6259 67.1024 52.3706 65.684 51.1765 65.7156C52.3706 65.684 52.0887 68.2137 50.7642 67.8884Z" fill="url(#paint8_linear_14_4490)"/>
<path d="M37.7861 57.6628C36.9378 45.4345 33.022 42.4155 33.507 42.6429C32.1462 41.1175 37.5744 42.7754 40.0078 56.0426C40.0805 58.4428 37.8225 58.8629 37.7861 57.6628Z" fill="url(#paint9_linear_14_4490)"/>
<path d="M14.8341 37.7326C8.64526 30.6901 10.9396 31.4701 11.0699 31.827C40.1468 68.5299 140.954 117.866 137.293 123.248C134.659 127.041 39.0316 63.2748 14.8341 37.7326Z" fill="url(#paint10_linear_14_4490)"/>
</g>
<defs>
<filter id="filter0_f_14_4490" x="0" y="-9" width="146.648" height="171.679" filterUnits="userSpaceOnUse" color-interpolation-filters="sRGB">
<feFlood flood-opacity="0" result="BackgroundImageFix"/>
<feBlend mode="normal" in="SourceGraphic" in2="BackgroundImageFix" result="shape"/>
<feGaussianBlur stdDeviation="4.5" result="effect1_foregroundBlur_14_4490"/>
</filter>
<linearGradient id="paint0_linear_14_4490" x1="5.40751" y1="77.7266" x2="111.911" y2="74.0928" gradientUnits="userSpaceOnUse">
<stop offset="0.039604" stop-color="#BBD0AB"/>
<stop offset="0.6832" stop-color="#5E9F2E"/>
<stop offset="1" stop-color="#3C6B46"/>
</linearGradient>
<linearGradient id="paint1_linear_14_4490" x1="45.224" y1="6.32281" x2="127.991" y2="198.478" gradientUnits="userSpaceOnUse">
<stop offset="0.039604" stop-color="#BBD0AB"/>
<stop offset="0.6832" stop-color="#5E9F2E"/>
<stop offset="1" stop-color="#3C6B46"/>
</linearGradient>
<linearGradient id="paint2_linear_14_4490" x1="53.8294" y1="32.6637" x2="88.6786" y2="106.638" gradientUnits="userSpaceOnUse">
<stop offset="0.039604" stop-color="#BBD0AB"/>
<stop offset="0.6832" stop-color="#5E9F2E"/>
<stop offset="1" stop-color="#3C6B46"/>
</linearGradient>
<linearGradient id="paint3_linear_14_4490" x1="60.1226" y1="-5.39486" x2="107.355" y2="94.8662" gradientUnits="userSpaceOnUse">
<stop offset="0.039604" stop-color="#BBD0AB"/>
<stop offset="0.6832" stop-color="#5E9F2E"/>
<stop offset="1" stop-color="#3C6B46"/>
</linearGradient>
<linearGradient id="paint4_linear_14_4490" x1="43.3857" y1="26.5298" x2="81.323" y2="107.059" gradientUnits="userSpaceOnUse">
<stop offset="0.039604" stop-color="#BBD0AB"/>
<stop offset="0.6832" stop-color="#5E9F2E"/>
<stop offset="1" stop-color="#3C6B46"/>
</linearGradient>
<linearGradient id="paint5_linear_14_4490" x1="48.9403" y1="2.76646" x2="95.9958" y2="102.651" gradientUnits="userSpaceOnUse">
<stop offset="0.039604" stop-color="#BBD0AB"/>
<stop offset="0.6832" stop-color="#5E9F2E"/>
<stop offset="1" stop-color="#3C6B46"/>
</linearGradient>
<linearGradient id="paint6_linear_14_4490" x1="32.4876" y1="25.718" x2="72.3239" y2="110.279" gradientUnits="userSpaceOnUse">
<stop offset="0.039604" stop-color="#BBD0AB"/>
<stop offset="0.6832" stop-color="#5E9F2E"/>
<stop offset="1" stop-color="#3C6B46"/>
</linearGradient>
<linearGradient id="paint7_linear_14_4490" x1="36.7067" y1="10.2977" x2="84.1236" y2="110.95" gradientUnits="userSpaceOnUse">
<stop offset="0.039604" stop-color="#BBD0AB"/>
<stop offset="0.6832" stop-color="#5E9F2E"/>
<stop offset="1" stop-color="#3C6B46"/>
</linearGradient>
<linearGradient id="paint8_linear_14_4490" x1="24.7628" y1="26.5175" x2="65.3413" y2="112.653" gradientUnits="userSpaceOnUse">
<stop offset="0.039604" stop-color="#BBD0AB"/>
<stop offset="0.6832" stop-color="#5E9F2E"/>
<stop offset="1" stop-color="#3C6B46"/>
</linearGradient>
<linearGradient id="paint9_linear_14_4490" x1="22.5142" y1="20.5628" x2="69.29" y2="119.854" gradientUnits="userSpaceOnUse">
<stop offset="0.039604" stop-color="#BBD0AB"/>
<stop offset="0.6832" stop-color="#5E9F2E"/>
<stop offset="1" stop-color="#3C6B46"/>
</linearGradient>
<linearGradient id="paint10_linear_14_4490" x1="43.967" y1="13.2243" x2="87.009" y2="104.59" gradientUnits="userSpaceOnUse">
<stop offset="0.039604" stop-color="#BBD0AB"/>
<stop offset="0.6832" stop-color="#5E9F2E"/>
<stop offset="1" stop-color="#3C6B46"/>
</linearGradient>
<clipPath id="clip0_14_4490">
<rect width="131.07" height="89.0937" fill="white" transform="translate(53.9594 153.679) rotate(-110.061)"/>
</clipPath>
</defs>
</svg>
