<svg width="70" height="22" viewBox="0 0 70 22" fill="none" xmlns="http://www.w3.org/2000/svg">
<path fill-rule="evenodd" clip-rule="evenodd" d="M17.2313 3.59487L17.8624 4.2336C17.9026 4.27437 17.944 4.31616 17.9863 4.35892C18.5544 4.93286 19.293 5.67907 19.8508 6.41906C20.5404 7.33389 21.4141 8.81682 21.4141 10.8371C21.4141 12.8574 20.5404 14.3403 19.8508 15.2552C19.293 15.9951 18.5544 16.7414 17.9863 17.3153C17.944 17.3581 17.9026 17.3999 17.8624 17.4406L17.2313 18.0793C17.191 18.1201 17.1497 18.162 17.1075 18.2048C16.5404 18.7798 15.8032 19.5273 15.0721 20.0919C14.1682 20.7899 12.7031 21.6742 10.707 21.6742C8.711 21.6742 7.24587 20.7899 6.34202 20.0919C5.61092 19.5273 4.87366 18.7798 4.30661 18.2048C4.26436 18.162 4.22307 18.1201 4.18279 18.0793L3.55173 17.4406C3.51145 17.3999 3.47008 17.3581 3.42776 17.3153C2.8597 16.7414 2.12112 15.9951 1.5633 15.2552C0.873686 14.3403 4.83362e-07 12.8574 0 10.8371C3.86689e-07 8.81682 0.873684 7.33389 1.5633 6.41906C2.12112 5.67907 2.8597 4.93286 3.42777 4.35892C3.47008 4.31616 3.51145 4.27437 3.55173 4.2336L4.18279 3.59487C4.22307 3.55411 4.26436 3.51223 4.3066 3.4694C4.87365 2.89444 5.61091 2.14688 6.34202 1.58229C7.24587 0.884297 8.711 9.78467e-08 10.707 0C12.7031 1.95693e-07 14.1682 0.884297 15.0721 1.58229C15.8032 2.14688 16.5404 2.89444 17.1075 3.46941C17.1497 3.51224 17.191 3.55411 17.2313 3.59487ZM10.707 5.18821C9.85775 5.18821 9.17429 5.87997 7.80737 7.26349L7.17632 7.90222C5.8094 9.28574 5.12594 9.9775 5.12594 10.8371C5.12594 11.6967 5.8094 12.3885 7.17632 13.772L7.80737 14.4107C9.17429 15.7943 9.85775 16.486 10.707 16.486C11.5563 16.486 12.2398 15.7943 13.6067 14.4107L14.2378 13.772C15.6047 12.3885 16.2881 11.6967 16.2881 10.8371C16.2881 9.9775 15.6047 9.28574 14.2378 7.90222L13.6067 7.26349C12.2398 5.87997 11.5563 5.18821 10.707 5.18821Z" fill="#4EBCD8"/>
<path d="M34.5037 4.80017C35.1864 4.80017 35.7904 4.89995 36.3155 5.09951C36.8512 5.29907 37.3553 5.59841 37.828 5.99752L36.5991 7.46271C36.2735 7.21063 35.9532 7.02158 35.6381 6.89554C35.323 6.7695 34.9869 6.70648 34.6298 6.70648C33.8946 6.70648 33.3116 7.01632 32.881 7.63601C32.4609 8.25569 32.2508 9.21147 32.2508 10.5034C32.2508 11.7742 32.4609 12.7195 32.881 13.3392C33.3116 13.9484 33.9051 14.253 34.6613 14.253C35.0604 14.253 35.4228 14.1794 35.7483 14.0324C36.0739 13.8748 36.4258 13.6543 36.8039 13.3707L37.954 14.8516C37.5444 15.2613 37.0455 15.5974 36.4573 15.8599C35.8796 16.1225 35.2389 16.2538 34.5352 16.2538C33.5269 16.2538 32.6499 16.0332 31.9042 15.5921C31.1585 15.151 30.5756 14.4998 30.1554 13.6385C29.7458 12.7668 29.541 11.7217 29.541 10.5034C29.541 9.3165 29.7511 8.29245 30.1712 7.4312C30.6018 6.56994 31.19 5.91875 31.9357 5.47762C32.6919 5.02599 33.5479 4.80017 34.5037 4.80017Z" fill="white"/>
<path d="M41.6909 5.068V13.9379H45.9447L45.6769 15.986H39.1072V5.068H41.6909Z" fill="white"/>
<path d="M49.7683 5.068V15.986H47.1845V5.068H49.7683Z" fill="white"/>
<path d="M56.2587 4.80017C56.9414 4.80017 57.5453 4.89995 58.0705 5.09951C58.6061 5.29907 59.1103 5.59841 59.5829 5.99752L58.3541 7.46271C58.0285 7.21063 57.7081 7.02158 57.393 6.89554C57.0779 6.7695 56.7418 6.70648 56.3847 6.70648C55.6495 6.70648 55.0666 7.01632 54.636 7.63601C54.2158 8.25569 54.0058 9.21147 54.0058 10.5034C54.0058 11.7742 54.2158 12.7195 54.636 13.3392C55.0666 13.9484 55.66 14.253 56.4162 14.253C56.8154 14.253 57.1777 14.1794 57.5033 14.0324C57.8289 13.8748 58.1808 13.6543 58.5589 13.3707L59.709 14.8516C59.2993 15.2613 58.8004 15.5974 58.2123 15.8599C57.6346 16.1225 56.9939 16.2538 56.2902 16.2538C55.2819 16.2538 54.4049 16.0332 53.6592 15.5921C52.9135 15.151 52.3305 14.4998 51.9104 13.6385C51.5008 12.7668 51.296 11.7217 51.296 10.5034C51.296 9.3165 51.506 8.29245 51.9262 7.4312C52.3568 6.56994 52.945 5.91875 53.6907 5.47762C54.4469 5.02599 55.3029 4.80017 56.2587 4.80017Z" fill="white"/>
<path d="M63.4459 5.068V15.986H60.8621V5.068H63.4459ZM69.7162 5.068L66.2345 9.9677L69.9998 15.986H67.0064L63.5247 10.1568L66.9907 5.068H69.7162Z" fill="white"/>
</svg>
