<svg width="29" height="26" viewBox="0 0 29 26" fill="none" xmlns="http://www.w3.org/2000/svg">
<path d="M18.7811 17.9947C18.3188 18.1761 17.8651 17.7322 18.0184 17.2599C19.0704 14.0182 22.8792 12.8089 26.42 15.685C28.2825 17.198 28.9823 17.5195 29 17.5276C27.7722 18.7552 26.3694 22.8747 23.3082 23.3303C19.936 23.9417 16.9513 20.6239 19.3932 19.1058C20.9991 18.1074 22.8899 17.5275 24.9166 17.5275C22.7918 17.0485 20.6707 17.2539 18.7811 17.9947Z" fill="#00AC68"/>
<path d="M3.51125 15.6849C9.62325 10.7203 13.5211 18.5496 11.0982 17.7735C9.37742 17.2223 7.49619 17.1022 5.60915 17.5275C8.80637 17.5275 11.7536 18.9928 13.7186 21.3777C13.5572 17.6297 13.3131 15.2837 13.0301 13.5386C11.3969 13.4824 9.22018 12.1636 8.0248 9.85581C5.96397 6.16769 6.91966 2.38616 7.22722 0C8.83751 1.56807 15.8718 -0.269295 18.6603 4.50916C19.8921 6.61999 19.5341 9.1886 18.2383 11.0683C17.8281 11.6634 16.8473 11.3778 16.8193 10.6557C16.6976 7.51428 15.1342 5.14084 12.2195 3.82627C13.5274 5.52088 14.3861 7.41812 14.8298 9.37906C15.5193 12.4337 16.2396 14.4376 16.5041 24.1737C16.531 25.1611 15.7311 25.9784 14.7434 25.966C14.0284 25.9571 13.4159 25.5033 13.1409 24.8433C12.7227 23.8393 12.042 22.8003 10.9343 21.8483C9.88169 23.0118 8.27995 23.6309 6.62262 23.3303C3.57441 22.8767 2.15184 18.7483 0.930906 17.5274C0.94878 17.5195 1.64877 17.1981 3.51125 15.6849Z" fill="#00AC68"/>
</svg>
