<svg width="20" height="20" viewBox="0 0 20 20" fill="none" xmlns="http://www.w3.org/2000/svg">
<g opacity="0.5">
<path fill-rule="evenodd" clip-rule="evenodd" d="M10.0206 2.0413C7.85348 2.0413 7.58175 2.05048 6.73066 2.08932C5.88134 2.12805 5.30128 2.26295 4.79373 2.46022C4.26901 2.66411 3.82403 2.93695 3.38039 3.38055C2.9368 3.82418 2.66395 4.26917 2.46006 4.79389C2.26279 5.30144 2.1279 5.88149 2.08916 6.73081C2.05033 7.5819 2.04114 7.85363 2.04114 10.0207C2.04114 12.1878 2.05033 12.4595 2.08916 13.3106C2.1279 14.1599 2.26279 14.74 2.46006 15.2475C2.66395 15.7722 2.9368 16.2172 3.38039 16.6609C3.82403 17.1045 4.26901 17.3773 4.79373 17.5812C5.30128 17.7785 5.88134 17.9134 6.73066 17.9521C7.58175 17.9909 7.85348 18.0001 10.0206 18.0001C12.1876 18.0001 12.4594 17.9909 13.3104 17.9521C14.1598 17.9134 14.7398 17.7785 15.2474 17.5812C15.7721 17.3773 16.2171 17.1045 16.6607 16.6609C17.1043 16.2172 17.3771 15.7722 17.5811 15.2475C17.7783 14.74 17.9132 14.1599 17.952 13.3106C17.9908 12.4595 18 12.1878 18 10.0207C18 7.85363 17.9908 7.5819 17.952 6.73081C17.9132 5.88149 17.7783 5.30144 17.5811 4.79389C17.3771 4.26917 17.1043 3.82418 16.6607 3.38055C16.2171 2.93695 15.7721 2.66411 15.2474 2.46022C14.7398 2.26295 14.1598 2.12805 13.3104 2.08932C12.4594 2.05048 12.1876 2.0413 10.0206 2.0413ZM10.0206 3.47903C12.1511 3.47903 12.4035 3.48717 13.2449 3.52556C14.0229 3.56103 14.4454 3.69102 14.7266 3.8003C15.099 3.94505 15.3649 4.11796 15.6441 4.3972C15.9233 4.67641 16.0962 4.94222 16.241 5.31468C16.3502 5.59586 16.4802 6.01836 16.5157 6.79634C16.5541 7.63774 16.5622 7.89012 16.5622 10.0207C16.5622 12.1513 16.5541 12.4037 16.5157 13.2451C16.4802 14.0231 16.3502 14.4456 16.241 14.7267C16.0962 15.0992 15.9233 15.365 15.6441 15.6442C15.3649 15.9235 15.099 16.0964 14.7266 16.2411C14.4454 16.3504 14.0229 16.4804 13.2449 16.5159C12.4036 16.5543 12.1513 16.5624 10.0206 16.5624C7.88981 16.5624 7.63749 16.5543 6.79618 16.5159C6.0182 16.4804 5.59569 16.3504 5.31452 16.2411C4.94206 16.0964 4.67625 15.9235 4.39704 15.6442C4.11783 15.365 3.94489 15.0992 3.80014 14.7267C3.69086 14.4456 3.56087 14.0231 3.5254 13.2451C3.48701 12.4037 3.47887 12.1513 3.47887 10.0207C3.47887 7.89012 3.48701 7.63774 3.5254 6.79634C3.56087 6.01836 3.69086 5.59586 3.80014 5.31468C3.94489 4.94222 4.1178 4.67641 4.39704 4.3972C4.67625 4.11796 4.94206 3.94505 5.31452 3.8003C5.59569 3.69102 6.0182 3.56103 6.79618 3.52556C7.63758 3.48717 7.88996 3.47903 10.0206 3.47903ZM10.0206 5.92318C7.75753 5.92318 5.92302 7.75769 5.92302 10.0207C5.92302 12.2837 7.75753 14.1182 10.0206 14.1182C12.2836 14.1182 14.1181 12.2837 14.1181 10.0207C14.1181 7.75769 12.2836 5.92318 10.0206 5.92318ZM10.0206 12.6805C8.55158 12.6805 7.36075 11.4897 7.36075 10.0207C7.36075 8.55173 8.55158 7.36091 10.0206 7.36091C11.4895 7.36091 12.6804 8.55173 12.6804 10.0207C12.6804 11.4897 11.4895 12.6805 10.0206 12.6805ZM15.2375 5.76129C15.2375 6.29012 14.8088 6.71881 14.28 6.71881C13.7512 6.71881 13.3225 6.29012 13.3225 5.76129C13.3225 5.23245 13.7512 4.80374 14.28 4.80374C14.8088 4.80374 15.2375 5.23245 15.2375 5.76129Z" fill="white"/>
</g>
</svg>
