<svg width="161" height="132" viewBox="0 0 161 132" fill="none" xmlns="http://www.w3.org/2000/svg">
<g clip-path="url(#clip0_14_4464)" filter="url(#filter0_f_14_4464)">
<path d="M152.496 7.99989C152.496 7.99989 77.2103 12.3548 45.4879 32.6203C15.8684 51.3884 27.2768 98.653 29.1387 105.134C137.995 4.75808 151.385 10.7431 152.496 7.99989Z" fill="url(#paint0_linear_14_4464)"/>
<path d="M104.447 106.525C128.37 83.3566 156.225 4.6019 150.393 9.4975C119.725 20.8346 51.0653 84.7807 29.1388 105.134C29.7951 107.733 78.4935 132.069 104.447 106.525Z" fill="url(#paint1_linear_14_4464)"/>
<path d="M35.6752 97.97C33.393 53.5001 47.0017 45.7613 44.2291 49.966C34.6567 63.5664 38.6845 102.147 38.3987 98.6327C38.5059 99.9504 35.8181 99.7269 35.6752 97.97Z" fill="url(#paint2_linear_14_4464)"/>
<path d="M43.2385 92.4914C52.4361 96.1647 69.3267 101.423 79.0154 100.193C88.7398 99.4017 77.4259 102.533 62.9955 100.169C37.7066 95.5942 40.957 91.7928 43.2385 92.4914Z" fill="url(#paint3_linear_14_4464)"/>
<path d="M61.3963 47.6853C64.9101 41.6518 68.0042 41.4001 67.1916 42.3505C53.4624 54.0784 56.8472 84.7524 53.6816 84.1256C49.9668 82.2171 57.1057 55.1084 61.3963 47.6853Z" fill="url(#paint4_linear_14_4464)"/>
<path d="M63.5042 73.5999C72.2955 77.7483 85.9848 81.9405 96.9638 80.1632C109.639 77.3637 92.6375 87.1471 65.0803 76.5666C60.4815 74.73 62.5487 72.7933 63.5042 73.5999Z" fill="url(#paint5_linear_14_4464)"/>
<path d="M74.1392 62.1234C81.3628 30.5866 92.4133 29.6878 89.9041 31.6604C79.8315 39.1117 76.3002 66.8111 76.8985 63.2254C76.1573 65.0542 73.398 63.9523 74.1392 62.1234Z" fill="url(#paint6_linear_14_4464)"/>
<path d="M85.9442 54.0893C93.8158 57.8704 108.389 61.9906 116.537 58.233C118.234 57.2107 115.091 62.3298 102.058 60.7371C80.9258 58.0345 83.6269 52.9514 85.9442 54.0893Z" fill="url(#paint7_linear_14_4464)"/>
<path d="M97.5347 43.4199C103.142 24.8363 108.482 24.8441 107.263 26.2696C101.874 31.1293 99.5172 45.9114 99.852 44.5578C99.5172 45.9114 96.7579 44.8095 97.5347 43.4199Z" fill="url(#paint8_linear_14_4464)"/>
<path d="M113.068 31.9871C127.092 34.8257 131.704 31.3556 131.298 31.8308C133.436 30.7726 129.887 36.3669 114.202 34.9898C111.478 34.3271 111.706 31.6558 113.068 31.9871Z" fill="url(#paint9_linear_14_4464)"/>
<path d="M142.616 12.3405C152.461 7.56058 150.871 9.90053 150.429 9.93648C100.106 31.2727 13.3157 129.411 8.39538 123.622C4.944 119.481 106.366 31.6479 142.616 12.3405Z" fill="url(#paint10_linear_14_4464)"/>
</g>
<defs>
<filter id="filter0_f_14_4464" x="-8" y="-0.000244141" width="176.927" height="132.061" filterUnits="userSpaceOnUse" color-interpolation-filters="sRGB">
<feFlood flood-opacity="0" result="BackgroundImageFix"/>
<feBlend mode="normal" in="SourceGraphic" in2="BackgroundImageFix" result="shape"/>
<feGaussianBlur stdDeviation="4" result="effect1_foregroundBlur_14_4464"/>
</filter>
<linearGradient id="paint0_linear_14_4464" x1="100.533" y1="-10.6736" x2="71.5849" y2="110.307" gradientUnits="userSpaceOnUse">
<stop offset="0.039604" stop-color="#BBD0AB"/>
<stop offset="0.6832" stop-color="#5E9F2E"/>
<stop offset="1" stop-color="#3C6B46"/>
</linearGradient>
<linearGradient id="paint1_linear_14_4464" x1="168.536" y1="56.2827" x2="-73.3785" y2="89.8175" gradientUnits="userSpaceOnUse">
<stop offset="0.039604" stop-color="#BBD0AB"/>
<stop offset="0.6832" stop-color="#5E9F2E"/>
<stop offset="1" stop-color="#3C6B46"/>
</linearGradient>
<linearGradient id="paint2_linear_14_4464" x1="136.224" y1="57.7958" x2="42.1673" y2="74.0663" gradientUnits="userSpaceOnUse">
<stop offset="0.039604" stop-color="#BBD0AB"/>
<stop offset="0.6832" stop-color="#5E9F2E"/>
<stop offset="1" stop-color="#3C6B46"/>
</linearGradient>
<linearGradient id="paint3_linear_14_4464" x1="177.1" y1="76.6838" x2="49.621" y2="98.7358" gradientUnits="userSpaceOnUse">
<stop offset="0.039604" stop-color="#BBD0AB"/>
<stop offset="0.6832" stop-color="#5E9F2E"/>
<stop offset="1" stop-color="#3C6B46"/>
</linearGradient>
<linearGradient id="paint4_linear_14_4464" x1="146.366" y1="47.946" x2="43.9749" y2="65.6582" gradientUnits="userSpaceOnUse">
<stop offset="0.039604" stop-color="#BBD0AB"/>
<stop offset="0.6832" stop-color="#5E9F2E"/>
<stop offset="1" stop-color="#3C6B46"/>
</linearGradient>
<linearGradient id="paint5_linear_14_4464" x1="171.385" y1="61.568" x2="44.3838" y2="83.5374" gradientUnits="userSpaceOnUse">
<stop offset="0.039604" stop-color="#BBD0AB"/>
<stop offset="0.6832" stop-color="#5E9F2E"/>
<stop offset="1" stop-color="#3C6B46"/>
</linearGradient>
<linearGradient id="paint6_linear_14_4464" x1="150.66" y1="35.9336" x2="43.1429" y2="54.5323" gradientUnits="userSpaceOnUse">
<stop offset="0.039604" stop-color="#BBD0AB"/>
<stop offset="0.6832" stop-color="#5E9F2E"/>
<stop offset="1" stop-color="#3C6B46"/>
</linearGradient>
<linearGradient id="paint7_linear_14_4464" x1="166.705" y1="45.4649" x2="38.7278" y2="67.6029" gradientUnits="userSpaceOnUse">
<stop offset="0.039604" stop-color="#BBD0AB"/>
<stop offset="0.6832" stop-color="#5E9F2E"/>
<stop offset="1" stop-color="#3C6B46"/>
</linearGradient>
<linearGradient id="paint8_linear_14_4464" x1="152.157" y1="26.9926" x2="42.6375" y2="45.9381" gradientUnits="userSpaceOnUse">
<stop offset="0.039604" stop-color="#BBD0AB"/>
<stop offset="0.6832" stop-color="#5E9F2E"/>
<stop offset="1" stop-color="#3C6B46"/>
</linearGradient>
<linearGradient id="paint9_linear_14_4464" x1="159.555" y1="26.3093" x2="33.3088" y2="48.148" gradientUnits="userSpaceOnUse">
<stop offset="0.039604" stop-color="#BBD0AB"/>
<stop offset="0.6832" stop-color="#5E9F2E"/>
<stop offset="1" stop-color="#3C6B46"/>
</linearGradient>
<linearGradient id="paint10_linear_14_4464" x1="161.159" y1="52.7275" x2="44.9899" y2="72.8228" gradientUnits="userSpaceOnUse">
<stop offset="0.039604" stop-color="#BBD0AB"/>
<stop offset="0.6832" stop-color="#5E9F2E"/>
<stop offset="1" stop-color="#3C6B46"/>
</linearGradient>
<clipPath id="clip0_14_4464">
<rect width="153" height="104" fill="white" transform="translate(0 20.4033) rotate(-4.64998)"/>
</clipPath>
</defs>
</svg>
