<svg width="78" height="22" viewBox="0 0 78 22" fill="none" xmlns="http://www.w3.org/2000/svg">
<g clip-path="url(#clip0_133_1262)">
<path d="M12.7817 2.17882C12.5113 1.74507 12.1474 1.37185 11.7314 1.07932C11.305 0.796883 10.8473 0.574967 10.3585 0.433747C9.82815 0.262266 9.27695 0.151308 8.71535 0.100872C8.06015 0.0302626 7.40495 1.25411e-06 6.74975 1.25411e-06H1.08175C0.54095 -0.0504343 0.0625499 0.342963 0.0105499 0.867493C0.0105499 0.87758 0.0105499 0.887667 0.0105499 0.897755C0.0105499 0.897755 0.0105499 0.928016 0.0105499 0.94819V9.87529C0.80095 11.5094 2.10095 12.8611 3.73375 13.7286V11.9331C3.68175 11.348 4.12895 10.8437 4.72175 10.7932H6.42735C8.74655 10.7932 10.5145 10.3191 11.7417 9.38102C12.9689 8.44292 13.5826 7.04081 13.6034 5.19487C13.6034 4.66025 13.5409 4.12563 13.4057 3.61119C13.2705 3.09675 13.0625 2.61256 12.7817 2.17882ZM9.45375 6.76846C9.25615 7.10133 8.96495 7.3636 8.61135 7.53508C8.22655 7.71664 7.81055 7.81752 7.39455 7.84778C6.92655 7.9083 6.45855 7.92847 5.99055 7.92847H4.35775C3.96255 7.92847 3.72335 7.61577 3.72335 7.17194V3.49014C3.70255 3.18753 3.94175 2.92526 4.25375 2.90509C4.28495 2.90509 4.32655 2.90509 4.35775 2.90509H5.99055C6.52095 2.90509 7.02015 2.91518 7.48815 2.94544C7.90415 2.96561 8.32015 3.06648 8.69455 3.22788C9.04815 3.37919 9.33935 3.63136 9.52655 3.95415C9.74495 4.3879 9.83855 4.86199 9.81775 5.33609C9.82815 5.84044 9.70335 6.33471 9.45375 6.76846ZM3.73375 14.2632C2.34015 13.7689 1.06095 12.9922 0.00014985 11.9835V16.3008C-0.0518502 16.6337 0.19775 16.9464 0.54095 16.9968C0.55135 16.9968 0.56175 16.9968 0.57215 16.9968H3.13055C3.80655 16.9968 3.73375 16.2907 3.73375 16.2907V14.2632ZM38.9586 4.71068H36.7434C36.3066 4.68042 35.9114 4.96286 35.8178 5.37643L33.249 12.2357C33.249 12.2357 30.9818 5.98166 30.8154 5.49748C30.7218 5.03347 30.3058 4.71068 29.817 4.7006H27.7786C27.0506 4.7006 27.0506 5.25539 27.1442 5.46722C27.2378 5.67905 30.025 13.083 31.117 15.9175C31.2834 16.2705 31.4082 16.6337 31.4706 17.017C31.3978 17.3902 31.2522 17.7533 31.0442 18.0761C30.961 18.2072 30.8674 18.3384 30.7634 18.4594C32.8642 17.8542 35.2978 15.6451 36.525 13.2646C37.7626 9.96607 39.385 5.56809 39.4578 5.33609C39.541 4.99312 39.541 4.71068 38.9586 4.71068ZM29.1098 19.1252C28.9226 19.1252 28.7354 19.105 28.5378 19.0848C28.309 19.0546 27.8618 19.0848 27.8618 19.4681V21.1224C27.8618 21.7579 28.1842 21.7983 28.3402 21.8386C28.8602 21.9496 29.401 22.0101 29.9418 22C30.5762 22.0202 31.2106 21.889 31.7826 21.6268C32.313 21.3645 32.781 21.0115 33.1554 20.5676C33.5922 20.0834 33.9562 19.5589 34.2474 18.984C34.5594 18.3787 34.861 17.7029 35.1418 16.9665L35.4746 16.089C34.8194 16.7345 31.9178 19.3874 29.1098 19.1252ZM25.7609 6.67767C25.6361 6.39523 25.4802 6.14305 25.2722 5.91105C25.0642 5.69922 24.8354 5.51765 24.5754 5.35626C24.305 5.17469 24.0033 5.02339 23.7017 4.89225C23.3897 4.77121 23.0673 4.68042 22.7449 4.60981C22.3705 4.52912 21.9962 4.47868 21.6114 4.44842C21.2058 4.40807 20.7482 4.3879 20.2386 4.3879C16.8586 4.3879 14.9346 5.41678 14.4666 7.48464C14.3938 7.77717 14.5706 8.07978 14.8826 8.15039C14.9138 8.16048 14.9449 8.16048 14.9657 8.16048H17.0457C17.6177 8.16048 17.6177 7.989 17.8257 7.5149C17.9193 7.25264 18.0858 7.03072 18.3146 6.86933C18.845 6.53645 19.4794 6.38515 20.1034 6.42549C20.6962 6.36497 21.2785 6.50619 21.7777 6.82898C22.1521 7.17194 22.3706 7.63595 22.3914 8.1403C22.3914 8.82623 22.173 9.27006 21.2994 9.27006C19.2298 9.19945 17.0041 9.42137 15.7561 10.1275C14.4977 10.8739 13.749 12.2054 13.7906 13.6378C13.7802 14.1825 13.8946 14.7272 14.1234 15.2215C14.3418 15.6552 14.6642 16.0284 15.0594 16.321C15.4754 16.6437 15.9538 16.8959 16.4634 17.0371C17.0458 17.1884 17.6385 17.2591 18.2417 17.2591C19.0529 17.2691 19.8537 17.1582 20.6337 16.9262C21.3201 16.6538 21.9649 16.3008 22.5577 15.8771V16.2604C22.5577 16.6437 22.6721 16.9766 23.1297 16.9766H25.5426C26.0314 16.9766 26.1457 16.6437 26.1457 16.2201V9.04814C26.1457 8.59422 26.1146 8.15039 26.0522 7.70656C26.0002 7.35351 25.9065 7.01055 25.7609 6.67767ZM22.4641 13.7487C22.4641 13.7487 21.8401 15.0096 19.6249 15.0096C19.0945 15.0298 18.5746 14.8886 18.1274 14.6061C17.7322 14.3035 17.5138 13.8395 17.5554 13.3553C17.5034 12.6997 17.8778 12.0844 18.4914 11.8019C19.3858 11.4691 20.3426 11.3177 21.2994 11.348C21.861 11.2673 22.3809 11.6405 22.4641 12.1852C22.4746 12.2357 22.4746 12.2861 22.4746 12.3365L22.4641 13.7487Z" fill="white"/>
<path d="M77.5734 9.11875C78.1454 10.0064 78.1454 11.1362 77.5734 12.0238C77.0014 12.8611 73.9126 16.0587 72.8934 17.0876C72.0094 17.9752 70.8134 18.8831 69.6278 18.8831H45.0838C41.7662 18.8831 41.5582 17.7836 41.5582 15.3324V5.32599C41.5582 2.8143 42.3278 2.07794 44.595 2.07794H69.6798C70.855 2.07794 71.9054 2.66299 73.0806 3.8331C74.1206 4.8519 77.1678 8.52361 77.5734 9.11875Z" fill="#33CCCC"/>
<path d="M47.1326 5.9514V5.89088C47.1326 5.56809 47.1326 5.25539 46.5606 5.25539H44.5118C44.0334 5.25539 44.0022 5.50756 44.0022 5.90096V8.54379C44.8134 7.44429 45.895 6.55662 47.1326 5.9514Z" fill="#1C2B27"/>
<path d="M60.923 15.4938V15.3526V8.98763C60.923 6.32463 59.7062 4.99313 57.283 4.99313C56.607 5.00322 55.9518 5.19488 55.3798 5.54792C54.7558 5.93124 54.1942 6.40533 53.7158 6.96012C53.4974 6.36498 53.0814 5.85054 52.5406 5.51766C51.9166 5.18479 51.2094 5.02339 50.4918 5.05366C49.4414 5.05366 48.4222 5.39662 47.5902 6.02202C47.4134 6.1935 44.0022 8.7758 44.0022 11.459V15.5342C44.0022 15.6653 43.9294 16.1596 44.5118 16.1596H46.6542C47.3198 16.1596 47.2574 15.7359 47.2574 15.5644V8.92711C47.611 8.4631 48.3494 7.34343 49.5558 7.34343C49.951 7.31317 50.3358 7.48465 50.5542 7.79735C50.7934 8.27145 50.8974 8.79598 50.8558 9.31042V14.4548V15.514C50.8558 15.6451 50.783 16.1394 51.3654 16.1394H53.4766C54.1422 16.1394 54.0798 15.7157 54.0798 15.5443V15.403V8.90694C54.4646 8.44293 55.2134 7.32326 56.3782 7.32326C56.7734 7.293 57.1582 7.46448 57.3974 7.77718C57.647 8.24118 57.751 8.7758 57.7094 9.29025V14.4347V15.4938C57.7094 15.625 57.6366 16.1192 58.219 16.1192H60.3614C60.9958 16.089 60.923 15.6653 60.923 15.4938Z" fill="#1C2B27"/>
<path d="M72.7062 12.9014C71.9575 14.8482 70.0023 16.099 67.8599 15.9881C64.5943 15.9881 62.4207 13.8294 62.4207 10.6016C62.4207 7.37368 64.6879 5.10408 67.7455 5.10408C70.8031 5.10408 72.8519 7.16185 72.9767 10.4805C72.9767 10.9042 72.8727 11.2774 72.3215 11.2774H65.3951C65.4367 13.0527 66.3207 14.0312 67.8807 14.0312C68.7335 14.0514 69.5135 13.5974 69.8879 12.851C70.0335 12.6392 70.2831 12.5181 70.5431 12.5282H72.3319C72.5295 12.5181 72.6958 12.6694 72.7062 12.8611C72.7062 12.8913 72.7062 12.9115 72.7062 12.9418V12.9014ZM67.7663 7.15177C66.4663 7.15177 65.5927 8.02934 65.3951 9.4718H70.0439C69.9191 8.21091 69.2223 7.15177 67.7663 7.15177Z" fill="#1C2B27"/>
</g>
<defs>
<clipPath id="clip0_133_1262">
<rect width="78" height="22" fill="white" transform="translate(-0.000244141)"/>
</clipPath>
</defs>
</svg>
