<svg width="20" height="20" viewBox="0 0 20 20" fill="none" xmlns="http://www.w3.org/2000/svg">
<g opacity="0.5">
<path fill-rule="evenodd" clip-rule="evenodd" d="M18 4.57843C17.4121 4.84616 16.7791 5.02721 16.1152 5.1081C16.7932 4.69207 17.3135 4.03238 17.5586 3.24654C16.9238 3.63176 16.2222 3.912 15.4728 4.06224C14.8755 3.40833 14.0218 3 13.0771 3C11.2655 3 9.79574 4.50716 9.79574 6.36583C9.79574 6.62971 9.82391 6.88588 9.88026 7.13242C7.15208 6.99182 4.73381 5.65318 3.11381 3.61442C2.83113 4.11328 2.6696 4.69207 2.6696 5.30842C2.6696 6.47562 3.24905 7.50608 4.12995 8.10991C3.59277 8.09354 3.08563 7.94041 2.64236 7.69002V7.73143C2.64236 9.36283 3.77402 10.7236 5.27663 11.0318C5.00147 11.1107 4.71128 11.1502 4.41169 11.1502C4.20039 11.1502 3.99378 11.13 3.79374 11.0905C4.21166 12.4272 5.42313 13.4009 6.86001 13.4269C5.7368 14.3302 4.32059 14.8685 2.78323 14.8685C2.5184 14.8685 2.25638 14.8531 2 14.8223C3.45284 15.7757 5.17896 16.3333 7.03187 16.3333C13.0705 16.3333 16.3715 11.2051 16.3715 6.75683C16.3715 6.61045 16.3687 6.46407 16.3631 6.32057C17.0045 5.84579 17.5614 5.25352 18 4.57843Z" fill="white"/>
</g>
</svg>
