<svg width="61" height="61" viewBox="0 0 61 61" fill="none" xmlns="http://www.w3.org/2000/svg">
<path fill-rule="evenodd" clip-rule="evenodd" d="M9.78937 48.052L5.99645 51.8452C4.00043 53.8413 1.99606 55.8456 0 57.8414V48.0603L0.0086563 48.052H9.78937Z" fill="white"/>
<path fill-rule="evenodd" clip-rule="evenodd" d="M43.6787 48.052V60.7648H2.93201L8.74631 54.9505L11.3373 52.3669L15.6448 48.052H43.6787Z" fill="white"/>
<path fill-rule="evenodd" clip-rule="evenodd" d="M43.6787 20.0343V43.911H19.7946C27.6449 36.0681 35.7199 27.9937 43.6787 20.0343Z" fill="white"/>
<path fill-rule="evenodd" clip-rule="evenodd" d="M60.7638 2.93176V60.7648H47.8197V15.8845C50.1553 13.5499 52.4908 11.2143 54.8181 8.87874L60.7638 2.93176Z" fill="white"/>
<path fill-rule="evenodd" clip-rule="evenodd" d="M57.8405 0C42.2052 15.6532 27.4386 30.4282 13.9391 43.9109H4.09937L47.497 0H57.8405Z" fill="white"/>
<path fill-rule="evenodd" clip-rule="evenodd" d="M41.6752 0L0 42.1715V0H41.6752Z" fill="white"/>
</svg>
