<svg width="29" height="27" viewBox="0 0 29 27" fill="none" xmlns="http://www.w3.org/2000/svg">
<path d="M18.7811 18.4947C18.3188 18.6761 17.8651 18.2322 18.0184 17.7599C19.0704 14.5182 22.8792 13.3089 26.42 16.185C28.2825 17.698 28.9823 18.0195 29 18.0276C27.7722 19.2552 26.3694 23.3747 23.3082 23.8303C19.936 24.4417 16.9513 21.1239 19.3932 19.6058C20.9991 18.6074 22.8899 18.0275 24.9166 18.0275C22.7918 17.5485 20.6707 17.7539 18.7811 18.4947Z" fill="#00AC68"/>
<path d="M3.51125 16.1849C9.62325 11.2203 13.5211 19.0496 11.0982 18.2735C9.37742 17.7223 7.49619 17.6022 5.60915 18.0275C8.80637 18.0275 11.7536 19.4928 13.7186 21.8777C13.5572 18.1297 13.3131 15.7837 13.0301 14.0386C11.3969 13.9824 9.22018 12.6636 8.0248 10.3558C5.96397 6.66769 6.91966 2.88616 7.22722 0.5C8.83751 2.06807 15.8718 0.230705 18.6603 5.00916C19.8921 7.11999 19.5341 9.6886 18.2383 11.5683C17.8281 12.1634 16.8473 11.8778 16.8193 11.1557C16.6976 8.01428 15.1342 5.64084 12.2195 4.32627C13.5274 6.02088 14.3861 7.91812 14.8298 9.87906C15.5193 12.9337 16.2396 14.9376 16.5041 24.6737C16.531 25.6611 15.7311 26.4784 14.7434 26.466C14.0284 26.4571 13.4159 26.0033 13.1409 25.3433C12.7227 24.3393 12.042 23.3003 10.9343 22.3483C9.88169 23.5118 8.27995 24.1309 6.62262 23.8303C3.57441 23.3767 2.15184 19.2483 0.930906 18.0274C0.94878 18.0195 1.64877 17.6981 3.51125 16.1849Z" fill="#00AC68"/>
</svg>
