<svg width="167" height="50" viewBox="0 0 167 50" fill="none" xmlns="http://www.w3.org/2000/svg">
<path d="M1.85718 16.7971H7.52885C8.60302 16.7971 9.6332 17.23 10.3928 18.0005C11.1523 18.7711 11.579 19.8161 11.579 20.9058V48H5.90735C4.83318 48 3.803 47.5671 3.04345 46.7966C2.28389 46.0261 1.85718 44.981 1.85718 43.8913V16.7971Z" fill="white"/>
<path d="M17.1007 16.7971H23.0795C24.0741 16.7971 25.028 17.1979 25.7313 17.9114C26.4346 18.6248 26.8297 19.5925 26.8297 20.6014C27.911 19.3324 29.187 18.2484 30.6084 17.3913C32.3504 16.4013 34.3276 15.9174 36.3229 15.9927C38.4553 15.929 40.5651 16.4497 42.4303 17.5C44.0891 18.4667 45.3929 19.9546 46.1448 21.7391C46.6966 21.0039 47.2905 20.3022 47.9234 19.6377C49.3186 18.1739 51.0595 17.0963 52.9808 16.5072C54.1393 16.1572 55.3437 15.9886 56.5524 16.0072C59.8382 16.0072 62.4336 16.9299 64.3384 18.7753C66.2433 20.6208 67.1957 23.1208 67.1957 26.2753V48.0145H57.431V29.6014C57.478 28.8772 57.3828 28.1508 57.1511 27.4642C56.9194 26.7776 56.5556 26.1444 56.0809 25.6014C55.6009 25.125 55.0286 24.7547 54.4004 24.514C53.7721 24.2733 53.1014 24.1673 52.4308 24.2029C51.6936 24.1939 50.9636 24.3503 50.2931 24.661C49.6225 24.9717 49.028 25.4289 48.552 26C47.5044 27.2029 46.9781 28.9589 46.9734 31.2681V48H41.2589C40.1847 48 39.1545 47.5671 38.395 46.7966C37.6354 46.026 37.2087 44.981 37.2087 43.8913V29.6014C37.2551 28.8779 37.1603 28.1521 36.9299 27.4658C36.6995 26.7794 36.3378 26.1459 35.8658 25.6014C35.4095 25.1457 34.8679 24.7872 34.2729 24.547C33.6779 24.3068 33.0416 24.1898 32.4013 24.2029C31.6236 24.1782 30.8501 24.3292 30.137 24.6449C27.9511 25.6449 26.8273 27.7415 26.7654 30.9348V48H17.1007V16.7971Z" fill="white"/>
<path d="M82.2249 33.7319V48H72.4959V0H78.2104C79.2846 0 80.3148 0.432879 81.0744 1.20341C81.8339 1.97394 82.2606 3.019 82.2606 4.1087V29.1304L91.1324 16.8116H102.304L91.0039 30.7971L104.74 48H93.3968L82.2249 33.7319Z" fill="white"/>
<path d="M136.57 16.7971H142.685C143.643 16.799 144.561 17.186 145.238 17.8732C145.916 18.5604 146.297 19.4919 146.299 20.4638C147.386 19.253 148.648 18.217 150.042 17.3913C151.833 16.4043 153.856 15.9308 155.892 16.0218C157.461 15.9983 159.02 16.2685 160.493 16.8189C161.792 17.3173 162.978 18.0792 163.978 19.058C164.95 20.0224 165.712 21.1825 166.214 22.4638C166.747 23.849 167.014 25.3248 167 26.8116V48H161.321C160.247 48 159.217 47.5671 158.457 46.7966C157.698 46.0261 157.271 44.981 157.271 43.8913V29.6015C157.318 28.875 157.22 28.1462 156.984 27.4589C156.747 26.7716 156.375 26.1399 155.892 25.6015C155.395 25.1228 154.806 24.7519 154.163 24.5114C153.519 24.271 152.834 24.166 152.149 24.2029C151.388 24.1851 150.631 24.3301 149.928 24.6285C149.226 24.9269 148.593 25.372 148.071 25.9348C146.98 27.0894 146.39 28.7561 146.299 30.9348V48H136.57V16.7971Z" fill="white"/>
<path d="M10.7576 1.93476C10.2289 1.39525 9.59832 0.969545 8.9036 0.683159C8.20888 0.396774 7.46433 0.2556 6.71454 0.268097C5.96589 0.256164 5.22257 0.397624 4.52909 0.684005C3.83561 0.970386 3.20623 1.3958 2.67865 1.93476C2.12676 2.47735 1.69244 3.13069 1.40341 3.8531C1.11438 4.57551 0.976987 5.35112 1.00001 6.13042C0.981474 6.90051 1.12115 7.66609 1.41015 8.37844C1.69915 9.0908 2.13114 9.73433 2.67865 10.2681C3.20623 10.8071 3.83561 11.2325 4.52909 11.5189C5.22257 11.8052 5.96589 11.9467 6.71454 11.9348C7.46433 11.9473 8.20888 11.8061 8.9036 11.5197C9.59832 11.2333 10.2289 10.8076 10.7576 10.2681C11.3038 9.7337 11.7345 9.08988 12.0222 8.37756C12.31 7.66524 12.4485 6.89998 12.4291 6.13042C12.453 5.35165 12.3167 4.57636 12.029 3.85398C11.7412 3.1316 11.3082 2.47797 10.7576 1.93476ZM8.46461 7.89853C8.23595 8.13252 7.9631 8.3173 7.66239 8.44181C7.36168 8.56633 7.0393 8.62801 6.71454 8.62317C6.39092 8.62745 6.06978 8.56548 5.77031 8.44097C5.47084 8.31646 5.19919 8.13197 4.97161 7.89853C4.73803 7.66726 4.55403 7.38957 4.43111 7.08283C4.3082 6.7761 4.24902 6.44693 4.25729 6.11592C4.25062 5.78467 4.30931 5.4554 4.4299 5.14749C4.55049 4.83957 4.73055 4.55923 4.95949 4.32293C5.18843 4.08663 5.46163 3.89915 5.76303 3.77151C6.06442 3.64387 6.38794 3.57866 6.71454 3.57969C7.04234 3.57671 7.3674 3.6405 7.67046 3.76727C7.97353 3.89404 8.24843 4.08121 8.4789 4.31771C8.70936 4.55421 8.8907 4.83522 9.01217 5.14409C9.13364 5.45297 9.19278 5.78344 9.18607 6.11592C9.19342 6.44745 9.13312 6.77694 9.00897 7.08371C8.88481 7.39047 8.69948 7.66788 8.46461 7.89853Z" fill="white"/>
<path d="M117.384 49C115.075 49.036 112.783 48.5947 110.648 47.7029C108.727 46.8922 106.983 45.7025 105.519 44.2029C104.085 42.6964 102.978 40.9018 102.269 38.9348C101.513 36.8468 101.136 34.6373 101.154 32.413C101.136 30.2077 101.514 28.0174 102.269 25.9493C102.99 23.9882 104.095 22.196 105.519 20.6812C106.973 19.1522 108.717 17.9392 110.648 17.1159C114.975 15.3767 119.793 15.3767 124.12 17.1159C126.05 17.9392 127.795 19.1522 129.249 20.6812C130.672 22.196 131.778 23.9882 132.499 25.9493C133.254 28.0174 133.631 30.2077 133.613 32.413C133.632 34.6373 133.254 36.8468 132.499 38.9348C131.79 40.9018 130.683 42.6964 129.249 44.2029C127.787 45.7155 126.044 46.9177 124.12 47.7391C121.982 48.6185 119.69 49.0475 117.384 49ZM117.384 40.6014C118.419 40.6232 119.445 40.3947 120.377 39.9348C121.203 39.5009 121.933 38.899 122.52 38.1667C123.139 37.4024 123.596 36.5168 123.863 35.5652C124.434 33.4939 124.434 31.3032 123.863 29.2319C123.603 28.2832 123.156 27.398 122.548 26.6304C121.961 25.9003 121.231 25.3008 120.405 24.8696C119.467 24.4303 118.446 24.2028 117.412 24.2028C116.379 24.2028 115.358 24.4303 114.419 24.8696C113.593 25.3008 112.864 25.9003 112.276 26.6304C111.666 27.4014 111.207 28.2847 110.926 29.2319C110.317 31.2977 110.317 33.4994 110.926 35.5652C111.206 36.513 111.664 37.3966 112.276 38.1667C112.864 38.899 113.593 39.5009 114.419 39.9348C115.344 40.3835 116.359 40.6045 117.384 40.5797V40.6014Z" fill="white"/>
</svg>
