<svg data-v-d0f81348="" width="150" height="19" viewBox="0 0 150 19" fill="none" xmlns="http://www.w3.org/2000/svg"><path data-v-d0f81348="" d="M10.6434 14.8409C9.75283 14.9792 7.26993 15.158 6.40968 15.158C2.59087 15.1782 1.71238e-05 14.2169 1.71238e-05 9.41053V0.674686C-0.000471007 0.623196 0.00948156 0.57214 0.029274 0.524601C0.0490665 0.477062 0.0782885 0.434026 0.115176 0.398091C0.152063 0.362156 0.195851 0.334067 0.243896 0.315519C0.291942 0.296971 0.343248 0.28835 0.394718 0.290175H3.61979C3.67138 0.28786 3.7229 0.296145 3.77116 0.314518C3.81943 0.33289 3.86341 0.36096 3.9004 0.396994C3.93739 0.433028 3.9666 0.47626 3.98622 0.524022C4.00584 0.571784 4.01547 0.623061 4.01449 0.674686V9.41053C4.01449 11.188 4.60823 11.7716 6.01498 11.7716C6.64988 11.7707 7.28415 11.7313 7.91427 11.6535V0.674686C7.91329 0.623061 7.92291 0.571784 7.94254 0.524022C7.96216 0.47626 7.99137 0.433028 8.02836 0.396994C8.06534 0.36096 8.10933 0.33289 8.15759 0.314518C8.20586 0.296145 8.25737 0.28786 8.30897 0.290175H11.5138C11.5664 0.287917 11.6188 0.296099 11.6682 0.314247C11.7176 0.332394 11.7629 0.360148 11.8015 0.395904C11.8401 0.431659 11.8712 0.474707 11.893 0.522558C11.9149 0.57041 11.927 0.622115 11.9287 0.674686V13.3265C11.9287 14.4328 11.5914 14.7094 10.6434 14.8409Z" fill="#fff"></path> <path data-v-d0f81348="" d="M18.1389 14.9859H14.8942C14.7907 14.9842 14.692 14.9418 14.6195 14.868C14.5469 14.7942 14.5063 14.6948 14.5063 14.5913V0.674686C14.5058 0.623779 14.5156 0.573295 14.535 0.526215C14.5543 0.479136 14.5829 0.436414 14.6191 0.400573C14.6553 0.364732 14.6982 0.336498 14.7455 0.317536C14.7927 0.298575 14.8433 0.289271 14.8942 0.290175H18.1389C18.1905 0.28786 18.242 0.296145 18.2903 0.314518C18.3385 0.33289 18.3825 0.36096 18.4195 0.396994C18.4565 0.433028 18.4857 0.47626 18.5053 0.524022C18.5249 0.571784 18.5345 0.623061 18.5336 0.674686V14.5913C18.5336 14.696 18.492 14.7964 18.418 14.8704C18.344 14.9444 18.2436 14.9859 18.1389 14.9859Z" fill="#fff"></path> <path data-v-d0f81348="" d="M29.6124 14.8106C28.7126 15.07 27.7791 15.1939 26.8427 15.1782C23.2027 15.1782 20.7502 13.1882 20.7502 8.65839V6.63464C20.7502 2.09133 23.2027 0.114806 26.8427 0.114806C27.7777 0.0875112 28.7114 0.201218 29.6124 0.452097C29.9295 0.553285 30.0476 0.610624 30.0476 0.887203V3.42026C30.0476 3.6766 29.9295 3.79465 29.7102 3.79465H29.6495C28.7301 3.68594 27.8056 3.62627 26.8798 3.61589C25.8104 3.61589 24.8557 4.09147 24.8557 6.60429V8.62803C24.8557 11.1206 25.8037 11.6131 26.8798 11.6131C27.7993 11.6131 28.7182 11.5647 29.6326 11.468H29.6866C29.9227 11.468 30.024 11.5861 30.024 11.8424V14.3755C30.0476 14.6318 29.9295 14.7094 29.6124 14.8106Z" fill="#fff"></path> <path data-v-d0f81348="" d="M40.4253 15.013C39.2224 15.0239 38.0201 14.9574 36.8258 14.814C36.766 14.8093 36.7078 14.7928 36.6545 14.7654C36.6012 14.7381 36.5538 14.7004 36.5152 14.6546C36.4766 14.6087 36.4475 14.5557 36.4296 14.4985C36.4116 14.4413 36.4053 14.3812 36.4108 14.3215V0.732058C36.4023 0.61177 36.4407 0.492859 36.5181 0.400373C36.5955 0.307887 36.7058 0.249045 36.8258 0.23624C38.0202 0.0943873 39.2225 0.0290444 40.4253 0.0406116C44.0855 0.0406116 46.42 1.91932 46.42 6.18943V8.86077C46.42 13.0938 44.0855 15.013 40.4253 15.013ZM44.6219 6.18943C44.6219 2.61077 42.8002 1.58203 40.4253 1.58203C39.4976 1.58203 38.8836 1.60227 38.2325 1.64274V13.4479C38.8634 13.485 39.4976 13.485 40.4253 13.485C42.7867 13.485 44.6219 12.4394 44.6219 8.87764V6.18943Z" fill="#fff" class="letter letter-1"></path> <path data-v-d0f81348="" d="M56.9442 9.98713H50.3152V10.2266C50.3152 12.4999 51.3846 13.5489 53.2063 13.5489C54.3359 13.5351 55.4631 13.4427 56.5798 13.2723H56.681C56.7204 13.267 56.7604 13.2702 56.7983 13.2817C56.8363 13.2932 56.8714 13.3127 56.9011 13.339C56.9309 13.3652 56.9546 13.3975 56.9708 13.4338C56.987 13.47 56.9951 13.5093 56.9948 13.5489V14.2235C56.9948 14.4798 56.9172 14.6181 56.6001 14.6788C55.4814 14.9093 54.3417 15.0223 53.1996 15.0161C50.9393 15.0128 48.5779 13.9233 48.5779 10.1187V8.73578C48.5779 5.92615 50.1432 3.85181 52.9634 3.85181C55.8512 3.85181 57.3153 5.90591 57.3153 8.71554V9.54528C57.3186 9.81174 57.1803 9.98713 56.9442 9.98713ZM55.5577 8.56376C55.5577 6.44895 54.7075 5.37973 52.9668 5.37973C51.2261 5.37973 50.3152 6.52652 50.3152 8.56376V8.66158H55.5577V8.56376Z" fill="#fff" class="letter letter-2"></path> <path data-v-d0f81348="" d="M68.0029 4.46921L65.4694 13.4513C65.1321 14.6959 64.3427 15.0129 63.5499 15.0129C62.7571 15.0129 61.988 14.6959 61.6338 13.4513L59.1003 4.46921C59.0848 4.42481 59.0779 4.37788 59.08 4.33092C59.0756 4.28727 59.0807 4.24319 59.0948 4.20165C59.1089 4.16012 59.1317 4.12208 59.1618 4.09012C59.1918 4.05816 59.2284 4.03301 59.269 4.01636C59.3096 3.99972 59.3533 3.99196 59.3971 3.99363H60.4834C60.6419 3.99363 60.8005 4.11168 60.8612 4.36802L63.0844 12.9555C63.2024 13.4513 63.361 13.5693 63.5567 13.5693C63.7523 13.5693 63.9143 13.4513 64.0323 12.9555L66.242 4.38489C66.3027 4.12855 66.4579 4.01049 66.6164 4.01049H67.7263C67.7676 4.00707 67.8092 4.01297 67.848 4.02778C67.8867 4.04258 67.9216 4.06591 67.9501 4.09603C67.9786 4.12615 68 4.16229 68.0126 4.20178C68.0253 4.24127 68.0289 4.2831 68.0232 4.32417C68.024 4.37327 68.0171 4.4222 68.0029 4.46921Z" fill="#fff" class="letter letter-3"></path> <path data-v-d0f81348="" d="M78.1906 9.98713H71.5616V10.2266C71.5616 12.4999 72.631 13.5489 74.4493 13.5489C75.5789 13.535 76.7061 13.4426 77.8228 13.2723H77.924C77.9633 13.2676 78.003 13.2712 78.0408 13.2829C78.0785 13.2946 78.1133 13.3142 78.143 13.3403C78.1726 13.3664 78.1964 13.3985 78.2127 13.4345C78.2291 13.4704 78.2376 13.5094 78.2378 13.5489V14.2235C78.2378 14.4798 78.1602 14.6181 77.8431 14.6788C76.7233 14.9095 75.5825 15.0225 74.4392 15.0161C72.1925 15.0128 69.831 13.9233 69.831 10.1187V8.73578C69.831 5.92615 71.3963 3.85181 74.2166 3.85181C77.1043 3.85181 78.5684 5.90591 78.5684 8.71554V9.54528C78.565 9.81174 78.4267 9.98713 78.1906 9.98713ZM76.804 8.56376C76.804 6.44895 75.9539 5.37974 74.2132 5.37974C72.4725 5.37974 71.5616 6.52652 71.5616 8.56376V8.66158H76.804V8.56376Z" fill="#fff" class="letter letter-4"></path> <path data-v-d0f81348="" d="M82.4813 14.8745H81.4526C81.356 14.8643 81.267 14.8172 81.2042 14.7431C81.1414 14.669 81.1095 14.5735 81.1153 14.4765V0.374393C81.1107 0.280099 81.1436 0.187813 81.2068 0.117673C81.27 0.0475327 81.3583 0.0052317 81.4526 0L82.4813 0C82.5296 0.0004173 82.5773 0.0105125 82.6216 0.0296881C82.6659 0.0488638 82.7059 0.0767302 82.7392 0.111638C82.7725 0.146546 82.7985 0.187787 82.8157 0.232919C82.8328 0.278051 82.8407 0.326158 82.8389 0.374393V14.4765C82.8416 14.5262 82.8345 14.5758 82.818 14.6227C82.8015 14.6696 82.7759 14.7128 82.7427 14.7497C82.7095 14.7867 82.6693 14.8168 82.6244 14.8382C82.5796 14.8596 82.531 14.8719 82.4813 14.8745Z" fill="#fff" class="letter letter-5"></path> <path data-v-d0f81348="" d="M89.7623 15.0129C86.8544 15.0129 85.3768 13.0937 85.3768 10.1862V8.6819C85.3768 5.77446 86.8611 3.85864 89.7623 3.85864C92.6635 3.85864 94.1749 5.77446 94.1749 8.6819V10.1862C94.1749 13.0937 92.6703 15.0129 89.7623 15.0129ZM92.4341 8.6819C92.4341 6.65816 91.6211 5.37983 89.7623 5.37983C87.9035 5.37983 87.1108 6.64467 87.1108 8.6819V10.1862C87.1108 12.21 87.9035 13.4883 89.7623 13.4883C91.6211 13.4883 92.4341 12.2235 92.4341 10.1862V8.6819Z" fill="#fff" class="letter letter-6"></path> <path data-v-d0f81348="" d="M100.564 15.0129C99.788 15.0013 99.0141 14.928 98.2497 14.7936V18.3756C98.2489 18.4753 98.2087 18.5705 98.1379 18.6406C98.0671 18.7107 97.9715 18.75 97.8719 18.75H96.8599C96.8117 18.7496 96.7642 18.7395 96.7201 18.7203C96.6759 18.7011 96.6361 18.6732 96.6031 18.6382C96.57 18.6033 96.5443 18.562 96.5276 18.5169C96.5108 18.4717 96.5034 18.4237 96.5056 18.3756V4.76596C96.5056 4.50961 96.563 4.39156 96.9206 4.31061C98.1132 4.02441 99.3342 3.87281 100.561 3.85864C103.506 3.85864 104.872 5.77446 104.872 8.74262V10.166C104.875 13.2724 103.452 15.0129 100.564 15.0129ZM103.135 8.74262C103.135 6.6649 102.521 5.31911 100.564 5.31911C99.7885 5.32438 99.0147 5.39092 98.2497 5.51811V13.35C99.0151 13.4741 99.7887 13.5407 100.564 13.549C102.5 13.549 103.135 12.2842 103.135 10.1761V8.74262Z" fill="#fff" class="letter letter-7"></path> <path data-v-d0f81348="" d="M119.948 14.8746H118.919C118.869 14.8734 118.82 14.862 118.775 14.841C118.73 14.82 118.689 14.7899 118.656 14.7526C118.623 14.7152 118.597 14.6715 118.582 14.624C118.566 14.5765 118.561 14.5263 118.565 14.4766V7.31925C118.565 5.61593 117.833 5.37983 116.784 5.37983H116.329C115.064 5.37983 114.642 5.59907 114.642 6.72899V14.4867C114.646 14.5366 114.64 14.5869 114.624 14.6344C114.608 14.6818 114.582 14.7256 114.549 14.7628C114.515 14.8001 114.475 14.8301 114.429 14.8511C114.384 14.8721 114.334 14.8835 114.284 14.8847H113.255C113.205 14.8835 113.156 14.8721 113.111 14.8511C113.065 14.8301 113.025 14.8 112.992 14.7627C112.958 14.7253 112.933 14.6816 112.918 14.6341C112.902 14.5866 112.896 14.5364 112.901 14.4867V6.72899C112.901 5.60244 112.466 5.37983 111.214 5.37983H110.759C109.73 5.37983 108.978 5.61593 108.978 7.31925V14.4766C108.982 14.5265 108.976 14.5767 108.96 14.6242C108.944 14.6717 108.918 14.7154 108.885 14.7527C108.851 14.79 108.811 14.82 108.765 14.841C108.72 14.8619 108.67 14.8734 108.62 14.8746H107.608C107.558 14.8734 107.509 14.8619 107.463 14.841C107.418 14.82 107.377 14.79 107.343 14.7527C107.31 14.7154 107.284 14.6717 107.268 14.6242C107.252 14.5767 107.246 14.5265 107.25 14.4766V7.31925C107.25 5.2955 108.397 3.85864 110.772 3.85864H111.228C112.412 3.85864 113.184 4.0138 113.798 4.57033C114.392 4.05427 115.182 3.85864 116.369 3.85864H116.824C119.186 3.85864 120.346 5.28201 120.346 7.31925V14.4766C120.351 14.53 120.344 14.5838 120.326 14.6342C120.307 14.6846 120.278 14.7303 120.24 14.7683C120.202 14.8062 120.156 14.8354 120.106 14.8537C120.056 14.8721 120.002 14.8792 119.948 14.8746Z" fill="#fff" class="letter letter-8"></path> <path data-v-d0f81348="" d="M131.047 9.98702H124.422V10.2265C124.422 12.4998 125.488 13.5488 127.31 13.5488C128.439 13.535 129.566 13.4426 130.683 13.2722H130.784C130.824 13.267 130.864 13.2702 130.902 13.2816C130.94 13.2931 130.975 13.3126 131.005 13.3388C131.035 13.3649 131.06 13.3972 131.076 13.4334C131.093 13.4697 131.101 13.509 131.101 13.5488V14.2234C131.101 14.4797 131.02 14.618 130.703 14.6787C129.585 14.9094 128.445 15.0224 127.303 15.016C125.026 15.016 122.674 13.9266 122.674 10.1287V8.74579C122.674 5.93616 124.236 3.86182 127.06 3.86182C129.951 3.86182 131.412 5.91592 131.412 8.72555V9.55529C131.422 9.81163 131.284 9.98702 131.047 9.98702ZM129.664 8.56365C129.664 6.44884 128.811 5.37963 127.07 5.37963C125.329 5.37963 124.422 6.52642 124.422 8.56365V8.66147H129.664V8.56365Z" fill="#fff" class="letter letter-9"></path> <path data-v-d0f81348="" d="M141.728 14.8744H140.716C140.664 14.876 140.612 14.8666 140.565 14.8469C140.517 14.8272 140.473 14.7976 140.438 14.76C140.402 14.7224 140.375 14.6777 140.358 14.6288C140.34 14.58 140.334 14.528 140.338 14.4764V7.42024C140.338 5.93616 139.964 5.36276 138.618 5.36276H137.211C135.861 5.36276 135.49 5.93616 135.49 7.42024V14.4764C135.495 14.5248 135.49 14.5736 135.475 14.62C135.461 14.6664 135.437 14.7094 135.406 14.7465C135.374 14.7836 135.336 14.814 135.292 14.836C135.249 14.8579 135.201 14.871 135.153 14.8744H134.124C134.074 14.8732 134.025 14.8617 133.979 14.8408C133.934 14.8198 133.893 14.7898 133.859 14.7525C133.826 14.7152 133.8 14.6715 133.784 14.624C133.768 14.5765 133.762 14.5263 133.766 14.4764V7.42024C133.766 4.38462 135.885 3.86182 137.228 3.86182H138.634C139.984 3.86182 142.096 4.3745 142.096 7.42024V14.4764C142.1 14.5271 142.093 14.5782 142.077 14.6264C142.06 14.6746 142.034 14.7188 141.999 14.7562C141.965 14.7936 141.923 14.8234 141.876 14.8438C141.829 14.8641 141.779 14.8745 141.728 14.8744Z" fill="#fff" class="letter letter-10"></path> <path data-v-d0f81348="" d="M149.602 14.8946C148.972 14.9738 148.337 15.0132 147.703 15.0127C145.844 15.0127 144.778 14.3988 144.778 12.2638V2.05734C144.778 1.85834 144.954 1.72005 145.173 1.67957L146.141 1.52442H146.181C146.229 1.52413 146.276 1.53392 146.32 1.55314C146.363 1.57236 146.402 1.60058 146.434 1.63594C146.466 1.67131 146.49 1.71301 146.505 1.75832C146.519 1.80362 146.524 1.85151 146.519 1.89881V3.99676H149.602C149.651 3.99076 149.7 3.99559 149.747 4.01092C149.794 4.02625 149.837 4.0517 149.873 4.08548C149.909 4.11926 149.937 4.16055 149.956 4.20641C149.974 4.25228 149.982 4.30161 149.979 4.35092V5.0255C149.981 5.07519 149.972 5.12465 149.953 5.17077C149.935 5.21689 149.907 5.25867 149.871 5.29351C149.836 5.32834 149.794 5.35547 149.747 5.3732C149.701 5.39093 149.651 5.39887 149.602 5.39652H146.519V12.2638C146.519 13.4106 146.893 13.6129 147.983 13.6129H149.585C149.861 13.6129 150 13.6939 150 13.8929V14.5675C150 14.7361 149.898 14.8407 149.602 14.8946Z" fill="#fff" class="letter letter-11"></path></svg>
