<svg width="142" height="76" viewBox="0 0 142 76" fill="none" xmlns="http://www.w3.org/2000/svg">
<path d="M47.4756 18.1903C28.2258 13.6018 14.7732 24.5056 6.49856 12.245C6.47377 12.1957 6.44898 12.171 6.42424 12.1216C6.20122 11.7763 6.49856 11.2829 6.89492 11.3816C23.9398 15.4273 26.7145 12.9111 33.8744 13.7745C40.4891 14.5639 47.4756 18.1903 47.4756 18.1903Z" fill="white"/>
<path d="M50.8698 21.274C33.9239 18.7824 21.9082 31.3884 12.8408 21.6934C12.816 21.6687 12.7912 21.6194 12.7417 21.5947C12.4939 21.3234 12.6673 20.83 13.039 20.8547C28.523 21.9895 32.1649 19.2758 38.5319 19.0044C44.4778 18.7578 50.8698 21.274 50.8698 21.274Z" fill="white"/>
<path d="M54.016 25.2458C39.2256 23.2476 32.8833 36.4701 20.8925 28.3788C20.8677 28.3541 20.8429 28.3295 20.7934 28.2801C20.5456 28.0581 20.62 27.4167 20.9668 27.4167C34.0725 27.4414 37.4913 24.407 43.0161 23.741C50.4981 22.8529 54.016 25.2458 54.016 25.2458Z" fill="white"/>
<path d="M60.6804 29.6122C52.9509 30.4263 54.1647 36.5937 45.692 35.2121C44.5767 35.0394 44.8246 34.25 45.3204 34.102C52.4303 32.0792 52.4303 30.7223 54.9824 29.7109C57.4103 28.7981 60.6804 29.6122 60.6804 29.6122Z" fill="white"/>
<path d="M57.1872 27.7126C46.0388 27.9346 43.1896 35.9026 33.8 33.3125C32.3631 32.9178 32.8586 31.8323 33.6266 31.7337C44.3789 30.0315 44.8991 28.4526 48.8875 27.5152C52.6285 26.6271 57.1872 27.7126 57.1872 27.7126Z" fill="white"/>
<path d="M50.8201 18.1659C50.7456 18.2892 50.5722 18.3139 50.4485 18.2646C48.1443 16.9571 45.9891 15.4276 43.5115 13.7501C41.1829 12.196 36.1783 10.0744 25.773 10.5678C20.8181 10.8145 13.2867 11.8259 5.5075 6.52203C3.62463 5.2639 1.71698 3.11768 0.726012 1.11949C0.626913 0.946814 0.577366 0.724759 0.552591 0.502747C0.527819 0.280735 0.77556 0.108063 0.998534 0.182052C20.2483 7.87883 25.7482 4.86922 37.863 7.65682C42.8428 8.81627 49.0117 16.0197 50.7953 17.8205C50.8941 17.8945 50.8941 18.0426 50.8201 18.1659Z" fill="white"/>
<path d="M67.5676 60.3499C67.3446 61.0405 67.3943 61.8548 66.9481 62.4468C66.4031 63.2364 65.0652 63.3104 64.4213 62.5947C64 62.225 64 61.633 63.8515 61.1642C62.8852 56.9458 61.9437 52.7274 61.0023 48.4839C60.9034 48.1881 61.0023 47.9905 61.2998 47.8672C61.7703 47.744 61.82 48.2621 61.9686 48.5583C63.0338 51.4443 64.0249 54.3555 65.1149 57.2416C65.4617 58.2284 66.6262 57.9075 67.3943 58.1544C68.212 58.6725 67.7162 59.6347 67.5676 60.3499Z" fill="white"/>
<path d="M68.831 48.7063C68.9304 48.9774 68.7814 49.2983 68.4843 49.3476C68.3109 49.3722 68.1623 49.3476 68.1127 49.1011C67.3943 47.6702 66.7748 46.1653 66.0315 44.7344C65.0652 43.9205 64.0497 43.0816 63.455 41.9223C62.3899 40.0472 62.4887 37.6053 63.6781 35.8042C63.777 35.6809 63.8515 35.533 63.9504 35.4094C64.1238 35.1629 64.4954 35.2122 64.5947 35.5084C64.6692 35.7302 64.7184 35.9521 64.8178 36.1497C66.1557 40.3188 67.4439 44.5372 68.831 48.7063Z" fill="white"/>
<path d="M69.0293 28.8474C68.9796 29.9575 68.5588 30.9936 68.286 32.0544C68.2612 32.1284 68.2364 32.1777 68.1623 32.2024C67.9889 32.2764 67.8155 32.1531 67.8155 31.9804C67.8404 30.5249 68.3605 29.0941 67.9889 27.6633C67.4439 25.7144 66.106 24.0122 66.0067 21.94C65.9575 20.8546 66.2297 19.7938 66.4528 18.733C65.6599 17.0802 65.2883 15.1806 65.7096 13.3798C65.7841 13.1578 65.8084 13.1578 65.9326 13.3305C66.7007 14.4406 67.7162 15.5507 67.7162 17.0062C67.6173 19.0784 66.4776 21.1506 67.2457 23.2228C67.8647 25.073 69.2027 26.7999 69.0293 28.8474Z" fill="white"/>
<path d="M75.5698 21.6934C75.5202 24.407 73.1419 26.5779 73.4146 29.3409C73.4146 30.4016 73.6869 31.4871 73.5632 32.5478C73.3898 33.4853 72.3242 33.6333 71.5566 33.8553C71.1104 34.0527 70.6151 33.5346 70.7388 33.0905C70.7388 29.8836 70.7388 26.6519 70.7388 23.4449C70.7885 22.1127 71.1104 20.7066 72.0271 19.6952C72.5969 19.0291 73.1916 18.363 73.8106 17.697C73.9348 17.549 74.0089 17.3762 73.984 17.2036C73.9348 16.6115 73.8106 16.0935 74.0834 15.4027C74.5046 14.5393 75.0496 14.0212 75.6195 13.4538C75.7184 13.3552 75.8669 13.4045 75.8918 13.5279C76.2882 15.2794 75.8918 17.1789 75.0745 18.7577C75.2727 19.6952 75.5698 20.6819 75.5698 21.6934Z" fill="white"/>
<path d="M106.86 11.7763C103.491 12.7137 101.93 13.8485 100.592 14.9093C100.592 14.9093 103.639 13.8485 108.025 13.3798C120.461 12.023 121.18 16.6361 135.103 11.2829C135.574 11.2089 135.698 11.579 135.574 11.7763C133.716 14.9833 131.659 18.5357 123.88 18.8564C115.407 19.2018 110.997 15.8221 103.045 16.8335C97.9661 17.4749 95.3399 19.0537 93.8783 20.0158C111.22 16.7102 109.783 24.3083 126.779 20.2625C126.977 20.2132 127.2 20.1638 127.398 20.1885C127.844 20.2378 128.017 20.7806 127.745 21.0766C127.621 21.2246 127.447 21.3726 127.324 21.5207C125.094 23.9136 122.741 26.5285 114.813 25.9364C105.497 25.2457 104.903 19.4978 87.1147 23.8889C104.358 23.8149 104.061 29.4394 117.042 27.7619C117.488 27.7126 117.761 28.2554 117.414 28.5514C117.216 28.7241 116.993 28.8721 116.819 29.0201C114.862 30.5496 112.013 32.4245 106.662 31.339C95.5133 29.0201 96.9253 24.4316 82.5808 26.9479C93.7542 27.2439 92.9861 31.561 104.457 32.6218C104.457 32.6218 104.457 32.6218 104.482 32.6218C105.101 32.6958 105.274 33.5099 104.754 33.8553C104.358 34.1266 103.912 34.324 103.491 34.4966C95.1169 37.7284 91.2273 27.2686 80.9458 29.6122C88.3041 30.2536 87.7094 32.7205 94.3488 34.5213C95.0672 34.7187 94.9932 35.6808 94.2003 35.7547C86.3218 36.5444 87.0154 31.265 82.1844 31.0677C80.8962 31.0183 79.7073 31.709 79.0629 32.8438C77.1552 36.1495 77.9232 39.2825 77.7995 40.9846C78.2456 42.761 78.9144 44.4878 78.9392 46.3624C78.964 47.67 78.8398 49.027 78.419 50.285C77.6261 52.8999 76.8332 55.5149 76.0159 58.1544C75.8425 58.6971 75.8669 59.2891 76.0651 59.8072C76.3627 60.5968 76.6598 61.3614 76.7835 62.2003C77.0811 63.6061 76.8829 65.0617 76.3875 66.4187C75.3468 68.9597 74.3064 71.5007 73.2656 74.0659C73.0674 74.5346 72.9188 75.028 72.572 75.4229C72.0519 75.5215 72.1015 74.8555 72.1508 74.5346C73.1667 65.0371 74.133 55.5395 75.1237 46.0419L75.9166 43.7721C74.3561 45.1044 73.6621 46.9548 72.6465 48.6076C72.5224 49.0019 71.9282 49.0763 71.804 48.6322C71.9033 46.9794 72.1259 45.3262 72.1756 43.6735C72.3242 41.9961 72.2998 40.294 72.8692 38.6905C73.5135 37.0624 74.7521 35.7547 75.7184 34.3486C77.3042 32.3258 78.4931 30.0315 79.3108 27.614C79.8061 26.1338 80.8469 24.8263 82.1844 24.0123C86.8176 21.1013 89.5178 18.585 93.9027 15.2793C97.9413 12.245 101.063 9.87678 102.846 9.16136C110.997 5.83105 127.373 9.40806 141.395 0.329783C141.742 0.132463 142.188 0.527147 141.916 1.09454C140.603 4.40021 139.042 6.52178 135.326 8.3473C124.623 13.6018 112.335 10.2468 106.86 11.7763Z" fill="white"/>
<path d="M74.3556 17.475C74.3556 17.475 73.439 15.8715 71.2093 15.6742C69.5246 15.5261 68.757 16.0935 68.757 16.0935C68.757 16.0935 70.7885 15.5015 72.3738 16.9076C73.9596 18.3138 73.0922 19.5226 73.0922 19.5226C73.0922 19.5226 74.8266 18.5111 74.3556 17.475Z" fill="white"/>
<path d="M74.2567 17.2529C74.2567 17.2529 73.0922 16.0195 70.714 15.9208C70.714 15.9208 72.1259 16.2662 72.2998 17.0309C72.5969 18.4864 71.3086 20.4353 71.0607 21.3727C70.8625 22.2115 74.2567 17.2529 74.2567 17.2529Z" fill="white"/>
</svg>
