<svg width="32" height="18" viewBox="0 0 32 18" fill="none" xmlns="http://www.w3.org/2000/svg">
<path d="M11.3297 17.0039C10.3816 17.16 7.73864 17.3577 6.82297 17.3577C2.75791 17.3577 0 16.278 0 10.8742V1.02415C0.000937616 0.96718 0.0125764 0.910777 0.0343071 0.858362C0.0559825 0.805947 0.0873093 0.759231 0.126469 0.71992C0.165573 0.680609 0.211679 0.649841 0.262089 0.629901C0.312555 0.60939 0.366278 0.600277 0.420164 0.601986H3.85316C3.90715 0.599707 3.9611 0.608821 4.01178 0.628762C4.06241 0.648702 4.10874 0.67947 4.14795 0.718781C4.18717 0.758093 4.2185 0.805382 4.24001 0.857797C4.26157 0.910212 4.27288 0.96661 4.27332 1.02415V10.8742C4.27332 12.8808 4.90533 13.5342 6.40281 13.5342C7.07872 13.532 7.75408 13.4864 8.42475 13.3975V1.02415C8.42475 0.96661 8.43633 0.910212 8.45784 0.857797C8.47935 0.805382 8.51079 0.758093 8.54995 0.718781C8.58911 0.67947 8.63544 0.648702 8.68618 0.628762C8.73692 0.608821 8.79042 0.599707 8.84447 0.601986H12.2563C12.3671 0.596859 12.4764 0.638446 12.5585 0.717069C12.6413 0.796261 12.6915 0.906219 12.6981 1.02415V15.2861C12.6981 16.5327 12.339 16.8483 11.3297 17.0039Z" fill="white"/>
<path d="M19.3087 17.1599H15.8544C15.7436 17.1565 15.6388 17.1081 15.5616 17.0243C15.4844 16.9406 15.4413 16.8283 15.4413 16.7115V1.02407C15.4424 0.967669 15.4535 0.911838 15.475 0.859993C15.4965 0.808148 15.5268 0.761432 15.5654 0.72269C15.6035 0.683379 15.6487 0.652612 15.6984 0.631532C15.748 0.611022 15.8009 0.600766 15.8544 0.601905H19.3087C19.3628 0.599626 19.4168 0.60874 19.4676 0.62868C19.5183 0.648621 19.5646 0.678819 19.6038 0.7187C19.643 0.758011 19.6744 0.805301 19.6959 0.857716C19.7174 0.910131 19.7285 0.966529 19.729 1.02407V16.7115C19.7296 16.7702 19.7191 16.8283 19.6981 16.8824C19.6772 16.9371 19.6463 16.9867 19.6071 17.0283C19.568 17.0699 19.5216 17.1029 19.4703 17.1257C19.419 17.1479 19.3644 17.1599 19.3087 17.1599Z" fill="white"/>
<path d="M31.5221 16.9588C30.5641 17.2482 29.5702 17.3827 28.5736 17.3582C24.6991 17.3582 22.0886 15.1311 22.0886 10.0275V7.7469C22.0886 2.62846 24.6991 0.401405 28.5736 0.401405C29.5697 0.378616 30.5636 0.513069 31.5221 0.800212C31.8597 0.914158 31.9854 0.979102 31.9854 1.29074V4.14451C31.9854 4.43336 31.8597 4.56611 31.6264 4.56611H31.5619C30.5829 4.44533 29.5989 4.37924 28.6133 4.36898C27.4749 4.36898 26.459 4.90055 26.459 7.73209V10.0121C26.459 12.8203 27.4716 13.3792 28.6133 13.3792C29.5989 13.3673 30.5829 13.3 31.5619 13.1775H31.601C31.8525 13.1775 31.9601 13.3109 31.9601 13.5997V16.4689C31.9854 16.7577 31.8597 16.8489 31.5221 16.9588Z" fill="white"/>
</svg>
