<svg width="25" height="25" viewBox="0 0 25 25" fill="none" xmlns="http://www.w3.org/2000/svg">
<path fill-rule="evenodd" clip-rule="evenodd" d="M13.0206 3.12476C10.3331 3.12476 9.99609 3.13615 8.94059 3.18431C7.8873 3.23235 7.16792 3.39965 6.53847 3.64429C5.88773 3.89715 5.33587 4.23552 4.78569 4.78566C4.23555 5.33583 3.89718 5.8877 3.64432 6.53844C3.39968 7.16789 3.23238 7.88725 3.18434 8.94055C3.13618 9.99605 3.12479 10.333 3.12479 13.0206C3.12479 15.7081 3.13618 16.0451 3.18434 17.1006C3.23238 18.1539 3.39968 18.8733 3.64432 19.5027C3.89718 20.1535 4.23555 20.7053 4.78569 21.2555C5.33587 21.8057 5.88773 22.144 6.53847 22.3969C7.16792 22.6415 7.8873 22.8088 8.94059 22.8569C9.99609 22.905 10.3331 22.9164 13.0206 22.9164C15.7082 22.9164 16.0452 22.905 17.1006 22.8569C18.1539 22.8088 18.8733 22.6415 19.5028 22.3969C20.1535 22.144 20.7054 21.8057 21.2555 21.2555C21.8057 20.7053 22.144 20.1535 22.3969 19.5027C22.6415 18.8733 22.8089 18.1539 22.8569 17.1006C22.9051 16.0451 22.9165 15.7081 22.9165 13.0206C22.9165 10.333 22.9051 9.99605 22.8569 8.94055C22.8089 7.88725 22.6415 7.16789 22.3969 6.53844C22.144 5.8877 21.8057 5.33583 21.2555 4.78566C20.7054 4.23552 20.1535 3.89715 19.5028 3.64429C18.8733 3.39965 18.1539 3.23235 17.1006 3.18431C16.0452 3.13615 15.7082 3.12476 13.0206 3.12476ZM13.0206 4.90778C15.6629 4.90778 15.9759 4.91788 17.0194 4.96549C17.9842 5.00949 18.5082 5.1707 18.8569 5.30622C19.3188 5.48573 19.6485 5.70018 19.9947 6.04648C20.341 6.39275 20.5555 6.7224 20.735 7.18431C20.8705 7.53301 21.0317 8.05699 21.0757 9.02182C21.1233 10.0653 21.1334 10.3783 21.1334 13.0206C21.1334 15.6629 21.1233 15.9759 21.0757 17.0194C21.0317 17.9842 20.8705 18.5082 20.735 18.8569C20.5555 19.3188 20.341 19.6484 19.9947 19.9947C19.6485 20.341 19.3188 20.5554 18.8569 20.735C18.5082 20.8705 17.9842 21.0317 17.0194 21.0757C15.9761 21.1233 15.6631 21.1334 13.0206 21.1334C10.3781 21.1334 10.0652 21.1233 9.02185 21.0757C8.05702 21.0317 7.53304 20.8705 7.18434 20.735C6.72243 20.5554 6.39277 20.341 6.0465 19.9947C5.70024 19.6484 5.48576 19.3188 5.30625 18.8569C5.17073 18.5082 5.00952 17.9842 4.96552 17.0194C4.91791 15.9759 4.90781 15.6629 4.90781 13.0206C4.90781 10.3783 4.91791 10.0653 4.96552 9.02182C5.00952 8.05699 5.17073 7.53301 5.30625 7.18431C5.48576 6.7224 5.7002 6.39275 6.0465 6.04648C6.39277 5.70018 6.72243 5.48573 7.18434 5.30622C7.53304 5.1707 8.05702 5.00949 9.02185 4.96549C10.0653 4.91788 10.3783 4.90778 13.0206 4.90778ZM13.0206 7.93895C10.2141 7.93895 7.93898 10.2141 7.93898 13.0206C7.93898 15.8271 10.2141 18.1022 13.0206 18.1022C15.8272 18.1022 18.1023 15.8271 18.1023 13.0206C18.1023 10.2141 15.8272 7.93895 13.0206 7.93895ZM13.0206 16.3192C11.1988 16.3192 9.72201 14.8424 9.72201 13.0206C9.72201 11.1988 11.1988 9.72198 13.0206 9.72198C14.8424 9.72198 16.3192 11.1988 16.3192 13.0206C16.3192 14.8424 14.8424 16.3192 13.0206 16.3192ZM19.4905 7.73818C19.4905 8.39403 18.9589 8.92566 18.303 8.92566C17.6472 8.92566 17.1155 8.39403 17.1155 7.73818C17.1155 7.08233 17.6472 6.55066 18.303 6.55066C18.9589 6.55066 19.4905 7.08233 19.4905 7.73818Z" fill="white"/>
</svg>
