<svg width="64" height="92" viewBox="0 0 64 92" fill="none" xmlns="http://www.w3.org/2000/svg">
<rect width="64" height="92" rx="6" fill="url(#paint0_linear_1_2)"/>
<rect width="64" height="92" rx="6" fill="url(#paint1_linear_1_2)"/>
<rect width="64" height="92" rx="6" fill="url(#paint2_linear_1_2)"/>
<path fill-rule="evenodd" clip-rule="evenodd" d="M32.0206 37.1248C29.3331 37.1248 28.9961 37.1362 27.9406 37.1844C26.8873 37.2324 26.1679 37.3997 25.5385 37.6444C24.8877 37.8972 24.3359 38.2356 23.7857 38.7857C23.2356 39.3359 22.8972 39.8878 22.6443 40.5385C22.3997 41.168 22.2324 41.8873 22.1843 42.9406C22.1362 43.9961 22.1248 44.3331 22.1248 47.0207C22.1248 49.7082 22.1362 50.0452 22.1843 51.1007C22.2324 52.154 22.3997 52.8734 22.6443 53.5028C22.8972 54.1535 23.2356 54.7054 23.7857 55.2556C24.3359 55.8057 24.8877 56.1441 25.5385 56.397C26.1679 56.6416 26.8873 56.8089 27.9406 56.8569C28.9961 56.9051 29.3331 56.9165 32.0206 56.9165C34.7082 56.9165 35.0452 56.9051 36.1006 56.8569C37.1539 56.8089 37.8733 56.6416 38.5028 56.397C39.1535 56.1441 39.7054 55.8057 40.2555 55.2556C40.8057 54.7054 41.144 54.1535 41.3969 53.5028C41.6416 52.8734 41.8089 52.154 41.8569 51.1007C41.9051 50.0452 41.9165 49.7082 41.9165 47.0207C41.9165 44.3331 41.9051 43.9961 41.8569 42.9406C41.8089 41.8873 41.6416 41.168 41.3969 40.5385C41.144 39.8878 40.8057 39.3359 40.2555 38.7857C39.7054 38.2356 39.1535 37.8972 38.5028 37.6444C37.8733 37.3997 37.1539 37.2324 36.1006 37.1844C35.0452 37.1362 34.7082 37.1248 32.0206 37.1248ZM32.0206 38.9079C34.6629 38.9079 34.9759 38.9179 36.0194 38.9656C36.9842 39.0096 37.5082 39.1708 37.8569 39.3063C38.3188 39.4858 38.6485 39.7002 38.9947 40.0466C39.341 40.3928 39.5555 40.7225 39.735 41.1844C39.8705 41.5331 40.0317 42.0571 40.0757 43.0219C40.1233 44.0654 40.1334 44.3784 40.1334 47.0207C40.1334 49.663 40.1233 49.9759 40.0757 51.0194C40.0317 51.9843 39.8705 52.5082 39.735 52.8569C39.5555 53.3188 39.341 53.6485 38.9947 53.9948C38.6485 54.3411 38.3188 54.5555 37.8569 54.735C37.5082 54.8706 36.9842 55.0318 36.0194 55.0758C34.9761 55.1234 34.6631 55.1335 32.0206 55.1335C29.3781 55.1335 29.0652 55.1234 28.0219 55.0758C27.057 55.0318 26.533 54.8706 26.1843 54.735C25.7224 54.5555 25.3928 54.3411 25.0465 53.9948C24.7002 53.6485 24.4858 53.3188 24.3063 52.8569C24.1707 52.5082 24.0095 51.9843 23.9655 51.0194C23.9179 49.9759 23.9078 49.663 23.9078 47.0207C23.9078 44.3784 23.9179 44.0654 23.9655 43.0219C24.0095 42.0571 24.1707 41.5331 24.3063 41.1844C24.4858 40.7225 24.7002 40.3928 25.0465 40.0466C25.3928 39.7002 25.7224 39.4858 26.1843 39.3063C26.533 39.1708 27.057 39.0096 28.0219 38.9656C29.0653 38.9179 29.3783 38.9079 32.0206 38.9079ZM32.0206 41.939C29.2141 41.939 26.939 44.2141 26.939 47.0207C26.939 49.8272 29.2141 52.1023 32.0206 52.1023C34.8272 52.1023 37.1023 49.8272 37.1023 47.0207C37.1023 44.2141 34.8272 41.939 32.0206 41.939ZM32.0206 50.3193C30.1988 50.3193 28.722 48.8424 28.722 47.0207C28.722 45.1989 30.1988 43.722 32.0206 43.722C33.8424 43.722 35.3192 45.1989 35.3192 47.0207C35.3192 48.8424 33.8424 50.3193 32.0206 50.3193ZM38.4906 41.7382C38.4906 42.3941 37.9589 42.9257 37.303 42.9257C36.6472 42.9257 36.1155 42.3941 36.1155 41.7382C36.1155 41.0824 36.6472 40.5507 37.303 40.5507C37.9589 40.5507 38.4906 41.0824 38.4906 41.7382Z" fill="white"/>
<defs>
<linearGradient id="paint0_linear_1_2" x1="56.75" y1="3.59375" x2="-11.9782" y2="65.5423" gradientUnits="userSpaceOnUse">
<stop stop-color="#8940BF"/>
<stop offset="0.494792" stop-color="#E5365F"/>
<stop offset="0.63954" stop-color="#EC6937"/>
<stop offset="1" stop-color="#F9DB81"/>
</linearGradient>
<linearGradient id="paint1_linear_1_2" x1="32" y1="-7.90625" x2="78.5151" y2="107.85" gradientUnits="userSpaceOnUse">
<stop stop-color="#4B64D3"/>
<stop offset="0.16707" stop-color="#B9328E"/>
<stop offset="0.315099" stop-color="#B9328E" stop-opacity="0"/>
</linearGradient>
<linearGradient id="paint2_linear_1_2" x1="65.25" y1="66.4844" x2="42.5394" y2="63.2891" gradientUnits="userSpaceOnUse">
<stop stop-color="#DD3073"/>
<stop offset="1" stop-color="#DE2F6D" stop-opacity="0"/>
</linearGradient>
</defs>
</svg>
