<svg width="22" height="22" viewBox="0 0 22 22" fill="none" xmlns="http://www.w3.org/2000/svg">
<path d="M21.5403 5.60158C21.2873 4.63376 20.5418 3.87153 19.5953 3.61286C17.8796 3.14282 11 3.14282 11 3.14282C11 3.14282 4.12044 3.14282 2.40474 3.61286C1.45821 3.87157 0.71273 4.63376 0.459711 5.60158C0 7.35581 0 11.0158 0 11.0158C0 11.0158 0 14.6759 0.459711 16.4301C0.71273 17.3979 1.45821 18.1284 2.40474 18.3871C4.12044 18.8571 11 18.8571 11 18.8571C11 18.8571 17.8796 18.8571 19.5953 18.3871C20.5418 18.1284 21.2873 17.3979 21.5403 16.4301C22 14.6759 22 11.0158 22 11.0158C22 11.0158 22 7.35581 21.5403 5.60158ZM8.74998 14.3389V7.6928L14.5 11.0159L8.74998 14.3389Z" fill="white"/>
</svg>
